<?xml version="1.0" encoding="UTF-8"?><svg version="1.1" xmlns="http://www.w3.org/2000/svg" xmlns:xlink="http://www.w3.org/1999/xlink" viewBox="0 0 1500 1500" width="1500" height="1500" x="0px" y="0px">
    
    
    <!-- ITEM 0 -->
    <g>
        <defs>
            <clipPath id="clip-path-id-viewbox-item-0">
                <rect x="0.0" y="0.0" width="500.0" height="279.0"/>
            </clipPath>
        </defs>
        <g transform="translate(1405.0 421.0) rotate(353.62356653489286 -305.5 171.0) scale(-1.222 1.2258064516129032)">
            <g clip-path="url(#clip-path-id-viewbox-item-0)" transform="translate(-0.0 -0.0)">
                
<path id="texture-2_6_-i0" fill="#428DFC" d="M301.174,166.971c-0.254-0.645-0.988-0.957-1.633-0.702s-0.954,0.991-0.699,1.638  c0.254,0.645,0.988,0.957,1.633,0.702l0,0C301.119,168.354,301.436,167.621,301.174,166.971L301.174,166.971z M209.925,75.896  c0.283-0.652-0.018-1.415-0.668-1.695l0,0c-0.588-0.277-1.288-0.025-1.562,0.563c-0.025,0.046-0.047,0.101-0.058,0.156  c-0.285,0.622-0.019,1.353,0.599,1.646C208.882,76.836,209.643,76.547,209.925,75.896L209.925,75.896L209.925,75.896z   M253.181,125.002c0.462-0.532,0.459-1.327-0.011-1.853c-0.506-0.508-1.336-0.507-1.848,0.011c-0.507,0.507-0.506,1.34,0.011,1.853  C251.868,125.47,252.654,125.47,253.181,125.002z M404.557,52.792c0.987-0.893,1.08-2.415,0.208-3.424  c-0.807-1.002-2.264-1.16-3.262-0.36c-0.035,0.029-0.068,0.053-0.096,0.084c-0.987,0.893-1.08,2.415-0.208,3.424  C402.047,53.52,403.553,53.646,404.557,52.792L404.557,52.792z M360.61,91.095c0.99-0.903,1.06-2.434,0.158-3.424  c-0.88-0.975-2.379-1.067-3.367-0.204c-1.005,0.854-1.127,2.358-0.275,3.368l0,0C358.053,91.819,359.568,91.929,360.61,91.095z   M316.553,129.418c0.998-0.858,1.115-2.354,0.259-3.354c-0.018-0.019-0.036-0.04-0.054-0.06c-0.807-1.002-2.264-1.16-3.262-0.36  c-0.035,0.029-0.068,0.053-0.096,0.084c-0.982,0.918-1.094,2.437-0.259,3.495C314.031,130.2,315.549,130.293,316.553,129.418z   M442.555,171.746c-0.456-1.242-1.83-1.879-3.073-1.412c-1.239,0.457-1.873,1.836-1.408,3.082c0.449,1.218,1.785,1.853,3.01,1.437  C442.326,174.387,442.978,173.009,442.555,171.746L442.555,171.746z M387.272,190.268c-0.456-1.242-1.83-1.879-3.073-1.412  c-1.239,0.457-1.873,1.836-1.408,3.082c0.449,1.218,1.785,1.853,3.01,1.437C387.04,192.916,387.695,191.531,387.272,190.268  L387.272,190.268z M297.652,3.494c0.568-1.207,0.074-2.649-1.128-3.236c-1.159-0.595-2.573-0.126-3.166,1.036  c-0.004,0.007-0.008,0.014-0.012,0.021c-0.64,1.108-0.262,2.522,0.84,3.168c0.053,0.029,0.105,0.058,0.166,0.093  C295.568,5.121,296.996,4.661,297.652,3.494z M271.577,55.805c0.553-1.214,0.087-2.65-1.069-3.305  c-1.203-0.57-2.642-0.067-3.227,1.131c-0.588,1.187-0.105,2.631,1.078,3.219c0.014,0.008,0.032,0.018,0.039,0.021  c1.159,0.595,2.573,0.126,3.16-1.029C271.568,55.819,271.572,55.812,271.577,55.805z M245.553,108.036  c0.596-1.131,0.179-2.532-0.95-3.128c-0.032-0.018-0.067-0.037-0.101-0.047c-1.159-0.635-2.61-0.198-3.244,0.964  c-0.021,0.039-0.039,0.068-0.058,0.105c-0.588,1.206-0.089,2.659,1.102,3.244c1.202,0.59,2.652,0.09,3.235-1.105  C245.544,108.053,245.55,108.043,245.553,108.036z M459.218,226.572c-0.269-1.149-1.41-1.871-2.562-1.623  c-1.149,0.26-1.874,1.409-1.619,2.57c0.255,1.16,1.405,1.879,2.563,1.623l0,0C458.745,228.869,459.466,227.728,459.218,226.572z   M331.808,49.486c0.6-1.051,0.281-2.383-0.729-3.046c-0.969-0.618-2.25-0.332-2.868,0.638c-0.018,0.032-0.029,0.053-0.046,0.084  c-0.649,0.993-0.369,2.325,0.625,2.966c0.014,0.008,0.021,0.012,0.039,0.021C329.832,50.739,331.134,50.456,331.808,49.486  L331.808,49.486z M304.229,93.606c0.607-1.008,0.284-2.314-0.708-2.926c-0.969-0.618-2.25-0.332-2.868,0.638  c-0.018,0.032-0.029,0.053-0.046,0.084c-0.649,0.993-0.369,2.325,0.62,2.974c0.014,0.008,0.021,0.012,0.039,0.021  C302.301,94.972,303.615,94.626,304.229,93.606L304.229,93.606z M276.623,137.917c0.649-0.993,0.369-2.325-0.62-2.974  c-0.014-0.008-0.021-0.012-0.039-0.021c-0.922-0.632-2.183-0.385-2.814,0.54c-0.04,0.057-0.075,0.118-0.108,0.177  c-0.649,0.993-0.369,2.325,0.62,2.974c0.014,0.008,0.021,0.012,0.039,0.021C274.709,139.206,275.995,138.894,276.623,137.917  L276.623,137.917z M393.885,145.417c0.941-0.721,1.141-2.063,0.441-3.025c-0.681-0.962-2.002-1.192-2.961-0.511  c-0.954,0.706-1.206,2.038-0.565,3.036C391.52,145.9,392.885,146.116,393.885,145.417L393.885,145.417z M351.474,175.67  c0.948-0.63,1.216-1.912,0.589-2.866c-0.022-0.032-0.049-0.068-0.068-0.107c-0.681-0.962-2.002-1.192-2.961-0.511  c-0.954,0.706-1.206,2.038-0.565,3.036C349.175,176.169,350.513,176.371,351.474,175.67L351.474,175.67z M226.807,36.769  c0.209-1.109-0.513-2.173-1.615-2.39c-0.046-0.007-0.087-0.021-0.126-0.021c-1.156-0.228-2.283,0.53-2.515,1.693  c-0.005,0.026-0.011,0.053-0.012,0.072c-0.145,1.174,0.651,2.261,1.82,2.466c1.148,0.204,2.24-0.573,2.443-1.725  C226.802,36.833,226.799,36.8,226.807,36.769L226.807,36.769z M218.209,88.254c0.189-1.181-0.588-2.307-1.763-2.532  c-1.188-0.169-2.297,0.66-2.463,1.853c-0.165,1.135,0.585,2.204,1.706,2.441c1.141,0.238,2.268-0.498,2.506-1.642  C218.202,88.34,218.209,88.294,218.209,88.254L218.209,88.254z M499.021,188.168c1.074-0.857,1.3-2.401,0.502-3.528  c-0.805-1.109-2.35-1.367-3.46-0.57c-1.09,0.847-1.314,2.412-0.502,3.528C496.366,188.706,497.911,188.963,499.021,188.168  L499.021,188.168z M450.435,223.594c1.115-0.803,1.363-2.357,0.568-3.47c-0.794-1.113-2.35-1.367-3.46-0.57  c-1.115,0.803-1.363,2.357-0.568,3.47C447.776,224.139,449.326,224.39,450.435,223.594L450.435,223.594z M284.293,54.286  c0.175-1.385-0.754-2.664-2.126-2.912c-1.374-0.172-2.628,0.813-2.791,2.196c-0.165,1.332,0.749,2.552,2.061,2.778  C282.783,56.533,284.041,55.631,284.293,54.286L284.293,54.286z M274.956,113.777c0.186-1.351-0.714-2.613-2.054-2.862  c-1.356-0.221-2.634,0.701-2.854,2.06c-0.22,1.36,0.699,2.642,2.054,2.862C273.449,116.034,274.716,115.116,274.956,113.777  L274.956,113.777z M393.815,126.171c0.653-1.196,0.28-2.701-0.843-3.464c-1.188-0.67-2.689-0.27-3.388,0.903  c-0.728,1.137-0.402,2.653,0.739,3.385c0.014,0.008,0.032,0.018,0.046,0.025C391.547,127.745,393.085,127.366,393.815,126.171  C393.811,126.178,393.815,126.171,393.815,126.171L393.815,126.171z M362.45,177.604c0.719-1.192,0.341-2.738-0.836-3.46  c0,0,0,0-0.007-0.004c-1.142-0.695-2.641-0.323-3.327,0.827l0,0c-0.712,1.163-0.355,2.689,0.801,3.401  C360.217,179.093,361.722,178.74,362.45,177.604L362.45,177.604z M433.2,138.296c0.722-1.149,0.376-2.678-0.776-3.406  c-1.153-0.731-2.67-0.378-3.398,0.777c-0.7,1.123-0.398,2.606,0.696,3.354C430.891,139.781,432.441,139.456,433.2,138.296  L433.2,138.296z M399.898,188.15c0.753-1.163,0.428-2.717-0.728-3.478c-1.13-0.72-2.634-0.426-3.42,0.656  c-0.74,1.18-0.445,2.728,0.671,3.546C397.593,189.605,399.117,189.277,399.898,188.15L399.898,188.15z M309.547,119.223  c0.238-1.36-0.653-2.668-2.006-2.934c-1.328-0.255-2.616,0.611-2.87,1.943c-0.313,1.299,0.48,2.61,1.774,2.926  c0.035,0.011,0.068,0.019,0.107,0.019c1.336,0.31,2.67-0.53,2.971-1.876C309.537,119.277,309.543,119.251,309.547,119.223  L309.547,119.223z"/>
<polygon fill="#428DFC" points="452.712,21.823 470.789,10.217 482.36,28.347 464.283,39.952 "/>
<polygon fill="#A1C3FC" points="56.946,53.293 77.39,59.857 70.845,80.361 50.401,73.797 "/>
<polygon fill="#E94A47" points="162.041,105.752 186.217,90.232 201.692,114.479 177.516,129.999 "/>
<g>
	<path fill="#428DFC" d="M110.84,194.845c-0.281,0-0.559-0.137-0.728-0.389C86.008,158.357,44.14,135.057,0.845,133.647   c-0.483-0.015-0.862-0.421-0.845-0.906s0.469-0.853,0.903-0.847c43.85,1.426,86.252,25.026,110.665,61.586   c0.269,0.402,0.161,0.947-0.24,1.218C111.176,194.798,111.007,194.845,110.84,194.845z"/>
</g>
<g>
	<path fill="#428DFC" d="M108.487,279c-0.173,0-0.348-0.051-0.5-0.158c-26.988-18.914-64.795-21.48-94.076-6.389   c-0.434,0.223-0.958,0.053-1.178-0.379c-0.22-0.429-0.051-0.96,0.378-1.181c29.842-15.385,68.372-12.764,95.877,6.508   c0.398,0.277,0.493,0.825,0.216,1.221C109.035,278.87,108.764,279,108.487,279z"/>
</g>
<g>
	<path fill="#428DFC" d="M317.141,172.811c-0.204,0-0.408-0.07-0.574-0.214c-0.363-0.317-0.405-0.872-0.087-1.239   c26.751-30.942,67.08-48.786,107.916-47.673c0.481,0.012,0.862,0.065,0.85,0.55c-0.014,0.475-0.401,0.501-0.875,0.501   c-0.007,0-0.015,0-0.025,0c-40.29,0-80.132,16.869-106.546,47.418C317.627,172.357,317.384,172.811,317.141,172.811z"/>
</g>

            </g>
        </g>
    </g>
    
    <!-- ITEM 1 -->
    <g>
        <defs>
            <clipPath id="clip-path-id-viewbox-item-1">
                <rect x="0.0" y="0.0" width="500.0" height="279.0"/>
            </clipPath>
        </defs>
        <g transform="translate(876.0 498.0) rotate(0.0 -322.0 180.0) scale(-1.288 1.2903225806451613)">
            <g clip-path="url(#clip-path-id-viewbox-item-1)" transform="translate(-0.0 -0.0)">
                
<path id="texture-2_6_-i1" fill="#428DFC" d="M301.174,166.971c-0.254-0.645-0.988-0.957-1.633-0.702s-0.954,0.991-0.699,1.638  c0.254,0.645,0.988,0.957,1.633,0.702l0,0C301.119,168.354,301.436,167.621,301.174,166.971L301.174,166.971z M209.925,75.896  c0.283-0.652-0.018-1.415-0.668-1.695l0,0c-0.588-0.277-1.288-0.025-1.562,0.563c-0.025,0.046-0.047,0.101-0.058,0.156  c-0.285,0.622-0.019,1.353,0.599,1.646C208.882,76.836,209.643,76.547,209.925,75.896L209.925,75.896L209.925,75.896z   M253.181,125.002c0.462-0.532,0.459-1.327-0.011-1.853c-0.506-0.508-1.336-0.507-1.848,0.011c-0.507,0.507-0.506,1.34,0.011,1.853  C251.868,125.47,252.654,125.47,253.181,125.002z M404.557,52.792c0.987-0.893,1.08-2.415,0.208-3.424  c-0.807-1.002-2.264-1.16-3.262-0.36c-0.035,0.029-0.068,0.053-0.096,0.084c-0.987,0.893-1.08,2.415-0.208,3.424  C402.047,53.52,403.553,53.646,404.557,52.792L404.557,52.792z M360.61,91.095c0.99-0.903,1.06-2.434,0.158-3.424  c-0.88-0.975-2.379-1.067-3.367-0.204c-1.005,0.854-1.127,2.358-0.275,3.368l0,0C358.053,91.819,359.568,91.929,360.61,91.095z   M316.553,129.418c0.998-0.858,1.115-2.354,0.259-3.354c-0.018-0.019-0.036-0.04-0.054-0.06c-0.807-1.002-2.264-1.16-3.262-0.36  c-0.035,0.029-0.068,0.053-0.096,0.084c-0.982,0.918-1.094,2.437-0.259,3.495C314.031,130.2,315.549,130.293,316.553,129.418z   M442.555,171.746c-0.456-1.242-1.83-1.879-3.073-1.412c-1.239,0.457-1.873,1.836-1.408,3.082c0.449,1.218,1.785,1.853,3.01,1.437  C442.326,174.387,442.978,173.009,442.555,171.746L442.555,171.746z M387.272,190.268c-0.456-1.242-1.83-1.879-3.073-1.412  c-1.239,0.457-1.873,1.836-1.408,3.082c0.449,1.218,1.785,1.853,3.01,1.437C387.04,192.916,387.695,191.531,387.272,190.268  L387.272,190.268z M297.652,3.494c0.568-1.207,0.074-2.649-1.128-3.236c-1.159-0.595-2.573-0.126-3.166,1.036  c-0.004,0.007-0.008,0.014-0.012,0.021c-0.64,1.108-0.262,2.522,0.84,3.168c0.053,0.029,0.105,0.058,0.166,0.093  C295.568,5.121,296.996,4.661,297.652,3.494z M271.577,55.805c0.553-1.214,0.087-2.65-1.069-3.305  c-1.203-0.57-2.642-0.067-3.227,1.131c-0.588,1.187-0.105,2.631,1.078,3.219c0.014,0.008,0.032,0.018,0.039,0.021  c1.159,0.595,2.573,0.126,3.16-1.029C271.568,55.819,271.572,55.812,271.577,55.805z M245.553,108.036  c0.596-1.131,0.179-2.532-0.95-3.128c-0.032-0.018-0.067-0.037-0.101-0.047c-1.159-0.635-2.61-0.198-3.244,0.964  c-0.021,0.039-0.039,0.068-0.058,0.105c-0.588,1.206-0.089,2.659,1.102,3.244c1.202,0.59,2.652,0.09,3.235-1.105  C245.544,108.053,245.55,108.043,245.553,108.036z M459.218,226.572c-0.269-1.149-1.41-1.871-2.562-1.623  c-1.149,0.26-1.874,1.409-1.619,2.57c0.255,1.16,1.405,1.879,2.563,1.623l0,0C458.745,228.869,459.466,227.728,459.218,226.572z   M331.808,49.486c0.6-1.051,0.281-2.383-0.729-3.046c-0.969-0.618-2.25-0.332-2.868,0.638c-0.018,0.032-0.029,0.053-0.046,0.084  c-0.649,0.993-0.369,2.325,0.625,2.966c0.014,0.008,0.021,0.012,0.039,0.021C329.832,50.739,331.134,50.456,331.808,49.486  L331.808,49.486z M304.229,93.606c0.607-1.008,0.284-2.314-0.708-2.926c-0.969-0.618-2.25-0.332-2.868,0.638  c-0.018,0.032-0.029,0.053-0.046,0.084c-0.649,0.993-0.369,2.325,0.62,2.974c0.014,0.008,0.021,0.012,0.039,0.021  C302.301,94.972,303.615,94.626,304.229,93.606L304.229,93.606z M276.623,137.917c0.649-0.993,0.369-2.325-0.62-2.974  c-0.014-0.008-0.021-0.012-0.039-0.021c-0.922-0.632-2.183-0.385-2.814,0.54c-0.04,0.057-0.075,0.118-0.108,0.177  c-0.649,0.993-0.369,2.325,0.62,2.974c0.014,0.008,0.021,0.012,0.039,0.021C274.709,139.206,275.995,138.894,276.623,137.917  L276.623,137.917z M393.885,145.417c0.941-0.721,1.141-2.063,0.441-3.025c-0.681-0.962-2.002-1.192-2.961-0.511  c-0.954,0.706-1.206,2.038-0.565,3.036C391.52,145.9,392.885,146.116,393.885,145.417L393.885,145.417z M351.474,175.67  c0.948-0.63,1.216-1.912,0.589-2.866c-0.022-0.032-0.049-0.068-0.068-0.107c-0.681-0.962-2.002-1.192-2.961-0.511  c-0.954,0.706-1.206,2.038-0.565,3.036C349.175,176.169,350.513,176.371,351.474,175.67L351.474,175.67z M226.807,36.769  c0.209-1.109-0.513-2.173-1.615-2.39c-0.046-0.007-0.087-0.021-0.126-0.021c-1.156-0.228-2.283,0.53-2.515,1.693  c-0.005,0.026-0.011,0.053-0.012,0.072c-0.145,1.174,0.651,2.261,1.82,2.466c1.148,0.204,2.24-0.573,2.443-1.725  C226.802,36.833,226.799,36.8,226.807,36.769L226.807,36.769z M218.209,88.254c0.189-1.181-0.588-2.307-1.763-2.532  c-1.188-0.169-2.297,0.66-2.463,1.853c-0.165,1.135,0.585,2.204,1.706,2.441c1.141,0.238,2.268-0.498,2.506-1.642  C218.202,88.34,218.209,88.294,218.209,88.254L218.209,88.254z M499.021,188.168c1.074-0.857,1.3-2.401,0.502-3.528  c-0.805-1.109-2.35-1.367-3.46-0.57c-1.09,0.847-1.314,2.412-0.502,3.528C496.366,188.706,497.911,188.963,499.021,188.168  L499.021,188.168z M450.435,223.594c1.115-0.803,1.363-2.357,0.568-3.47c-0.794-1.113-2.35-1.367-3.46-0.57  c-1.115,0.803-1.363,2.357-0.568,3.47C447.776,224.139,449.326,224.39,450.435,223.594L450.435,223.594z M284.293,54.286  c0.175-1.385-0.754-2.664-2.126-2.912c-1.374-0.172-2.628,0.813-2.791,2.196c-0.165,1.332,0.749,2.552,2.061,2.778  C282.783,56.533,284.041,55.631,284.293,54.286L284.293,54.286z M274.956,113.777c0.186-1.351-0.714-2.613-2.054-2.862  c-1.356-0.221-2.634,0.701-2.854,2.06c-0.22,1.36,0.699,2.642,2.054,2.862C273.449,116.034,274.716,115.116,274.956,113.777  L274.956,113.777z M393.815,126.171c0.653-1.196,0.28-2.701-0.843-3.464c-1.188-0.67-2.689-0.27-3.388,0.903  c-0.728,1.137-0.402,2.653,0.739,3.385c0.014,0.008,0.032,0.018,0.046,0.025C391.547,127.745,393.085,127.366,393.815,126.171  C393.811,126.178,393.815,126.171,393.815,126.171L393.815,126.171z M362.45,177.604c0.719-1.192,0.341-2.738-0.836-3.46  c0,0,0,0-0.007-0.004c-1.142-0.695-2.641-0.323-3.327,0.827l0,0c-0.712,1.163-0.355,2.689,0.801,3.401  C360.217,179.093,361.722,178.74,362.45,177.604L362.45,177.604z M433.2,138.296c0.722-1.149,0.376-2.678-0.776-3.406  c-1.153-0.731-2.67-0.378-3.398,0.777c-0.7,1.123-0.398,2.606,0.696,3.354C430.891,139.781,432.441,139.456,433.2,138.296  L433.2,138.296z M399.898,188.15c0.753-1.163,0.428-2.717-0.728-3.478c-1.13-0.72-2.634-0.426-3.42,0.656  c-0.74,1.18-0.445,2.728,0.671,3.546C397.593,189.605,399.117,189.277,399.898,188.15L399.898,188.15z M309.547,119.223  c0.238-1.36-0.653-2.668-2.006-2.934c-1.328-0.255-2.616,0.611-2.87,1.943c-0.313,1.299,0.48,2.61,1.774,2.926  c0.035,0.011,0.068,0.019,0.107,0.019c1.336,0.31,2.67-0.53,2.971-1.876C309.537,119.277,309.543,119.251,309.547,119.223  L309.547,119.223z"/>
<polygon fill="#428DFC" points="452.712,21.823 470.789,10.217 482.36,28.347 464.283,39.952 "/>
<polygon fill="#A1C3FC" points="56.946,53.293 77.39,59.857 70.845,80.361 50.401,73.797 "/>
<polygon fill="#E94A47" points="162.041,105.752 186.217,90.232 201.692,114.479 177.516,129.999 "/>
<g>
	<path fill="#428DFC" d="M110.84,194.845c-0.281,0-0.559-0.137-0.728-0.389C86.008,158.357,44.14,135.057,0.845,133.647   c-0.483-0.015-0.862-0.421-0.845-0.906s0.469-0.853,0.903-0.847c43.85,1.426,86.252,25.026,110.665,61.586   c0.269,0.402,0.161,0.947-0.24,1.218C111.176,194.798,111.007,194.845,110.84,194.845z"/>
</g>
<g>
	<path fill="#428DFC" d="M108.487,279c-0.173,0-0.348-0.051-0.5-0.158c-26.988-18.914-64.795-21.48-94.076-6.389   c-0.434,0.223-0.958,0.053-1.178-0.379c-0.22-0.429-0.051-0.96,0.378-1.181c29.842-15.385,68.372-12.764,95.877,6.508   c0.398,0.277,0.493,0.825,0.216,1.221C109.035,278.87,108.764,279,108.487,279z"/>
</g>
<g>
	<path fill="#428DFC" d="M317.141,172.811c-0.204,0-0.408-0.07-0.574-0.214c-0.363-0.317-0.405-0.872-0.087-1.239   c26.751-30.942,67.08-48.786,107.916-47.673c0.481,0.012,0.862,0.065,0.85,0.55c-0.014,0.475-0.401,0.501-0.875,0.501   c-0.007,0-0.015,0-0.025,0c-40.29,0-80.132,16.869-106.546,47.418C317.627,172.357,317.384,172.811,317.141,172.811z"/>
</g>

            </g>
        </g>
    </g>
    
    <!-- ITEM 2 -->
    <g>
        <defs>
            <clipPath id="clip-path-id-viewbox-item-2">
                <rect x="0.0" y="0.0" width="500.0" height="279.0"/>
            </clipPath>
        </defs>
        <g transform="translate(298.0 205.0) rotate(339.309331486067 375.0 209.5) scale(1.5 1.5017921146953406)">
            <g clip-path="url(#clip-path-id-viewbox-item-2)" transform="translate(-0.0 -0.0)">
                
<path id="texture-2_6_-i2" fill="#428DFC" d="M301.174,166.971c-0.254-0.645-0.988-0.957-1.633-0.702s-0.954,0.991-0.699,1.638  c0.254,0.645,0.988,0.957,1.633,0.702l0,0C301.119,168.354,301.436,167.621,301.174,166.971L301.174,166.971z M209.925,75.896  c0.283-0.652-0.018-1.415-0.668-1.695l0,0c-0.588-0.277-1.288-0.025-1.562,0.563c-0.025,0.046-0.047,0.101-0.058,0.156  c-0.285,0.622-0.019,1.353,0.599,1.646C208.882,76.836,209.643,76.547,209.925,75.896L209.925,75.896L209.925,75.896z   M253.181,125.002c0.462-0.532,0.459-1.327-0.011-1.853c-0.506-0.508-1.336-0.507-1.848,0.011c-0.507,0.507-0.506,1.34,0.011,1.853  C251.868,125.47,252.654,125.47,253.181,125.002z M404.557,52.792c0.987-0.893,1.08-2.415,0.208-3.424  c-0.807-1.002-2.264-1.16-3.262-0.36c-0.035,0.029-0.068,0.053-0.096,0.084c-0.987,0.893-1.08,2.415-0.208,3.424  C402.047,53.52,403.553,53.646,404.557,52.792L404.557,52.792z M360.61,91.095c0.99-0.903,1.06-2.434,0.158-3.424  c-0.88-0.975-2.379-1.067-3.367-0.204c-1.005,0.854-1.127,2.358-0.275,3.368l0,0C358.053,91.819,359.568,91.929,360.61,91.095z   M316.553,129.418c0.998-0.858,1.115-2.354,0.259-3.354c-0.018-0.019-0.036-0.04-0.054-0.06c-0.807-1.002-2.264-1.16-3.262-0.36  c-0.035,0.029-0.068,0.053-0.096,0.084c-0.982,0.918-1.094,2.437-0.259,3.495C314.031,130.2,315.549,130.293,316.553,129.418z   M442.555,171.746c-0.456-1.242-1.83-1.879-3.073-1.412c-1.239,0.457-1.873,1.836-1.408,3.082c0.449,1.218,1.785,1.853,3.01,1.437  C442.326,174.387,442.978,173.009,442.555,171.746L442.555,171.746z M387.272,190.268c-0.456-1.242-1.83-1.879-3.073-1.412  c-1.239,0.457-1.873,1.836-1.408,3.082c0.449,1.218,1.785,1.853,3.01,1.437C387.04,192.916,387.695,191.531,387.272,190.268  L387.272,190.268z M297.652,3.494c0.568-1.207,0.074-2.649-1.128-3.236c-1.159-0.595-2.573-0.126-3.166,1.036  c-0.004,0.007-0.008,0.014-0.012,0.021c-0.64,1.108-0.262,2.522,0.84,3.168c0.053,0.029,0.105,0.058,0.166,0.093  C295.568,5.121,296.996,4.661,297.652,3.494z M271.577,55.805c0.553-1.214,0.087-2.65-1.069-3.305  c-1.203-0.57-2.642-0.067-3.227,1.131c-0.588,1.187-0.105,2.631,1.078,3.219c0.014,0.008,0.032,0.018,0.039,0.021  c1.159,0.595,2.573,0.126,3.16-1.029C271.568,55.819,271.572,55.812,271.577,55.805z M245.553,108.036  c0.596-1.131,0.179-2.532-0.95-3.128c-0.032-0.018-0.067-0.037-0.101-0.047c-1.159-0.635-2.61-0.198-3.244,0.964  c-0.021,0.039-0.039,0.068-0.058,0.105c-0.588,1.206-0.089,2.659,1.102,3.244c1.202,0.59,2.652,0.09,3.235-1.105  C245.544,108.053,245.55,108.043,245.553,108.036z M459.218,226.572c-0.269-1.149-1.41-1.871-2.562-1.623  c-1.149,0.26-1.874,1.409-1.619,2.57c0.255,1.16,1.405,1.879,2.563,1.623l0,0C458.745,228.869,459.466,227.728,459.218,226.572z   M331.808,49.486c0.6-1.051,0.281-2.383-0.729-3.046c-0.969-0.618-2.25-0.332-2.868,0.638c-0.018,0.032-0.029,0.053-0.046,0.084  c-0.649,0.993-0.369,2.325,0.625,2.966c0.014,0.008,0.021,0.012,0.039,0.021C329.832,50.739,331.134,50.456,331.808,49.486  L331.808,49.486z M304.229,93.606c0.607-1.008,0.284-2.314-0.708-2.926c-0.969-0.618-2.25-0.332-2.868,0.638  c-0.018,0.032-0.029,0.053-0.046,0.084c-0.649,0.993-0.369,2.325,0.62,2.974c0.014,0.008,0.021,0.012,0.039,0.021  C302.301,94.972,303.615,94.626,304.229,93.606L304.229,93.606z M276.623,137.917c0.649-0.993,0.369-2.325-0.62-2.974  c-0.014-0.008-0.021-0.012-0.039-0.021c-0.922-0.632-2.183-0.385-2.814,0.54c-0.04,0.057-0.075,0.118-0.108,0.177  c-0.649,0.993-0.369,2.325,0.62,2.974c0.014,0.008,0.021,0.012,0.039,0.021C274.709,139.206,275.995,138.894,276.623,137.917  L276.623,137.917z M393.885,145.417c0.941-0.721,1.141-2.063,0.441-3.025c-0.681-0.962-2.002-1.192-2.961-0.511  c-0.954,0.706-1.206,2.038-0.565,3.036C391.52,145.9,392.885,146.116,393.885,145.417L393.885,145.417z M351.474,175.67  c0.948-0.63,1.216-1.912,0.589-2.866c-0.022-0.032-0.049-0.068-0.068-0.107c-0.681-0.962-2.002-1.192-2.961-0.511  c-0.954,0.706-1.206,2.038-0.565,3.036C349.175,176.169,350.513,176.371,351.474,175.67L351.474,175.67z M226.807,36.769  c0.209-1.109-0.513-2.173-1.615-2.39c-0.046-0.007-0.087-0.021-0.126-0.021c-1.156-0.228-2.283,0.53-2.515,1.693  c-0.005,0.026-0.011,0.053-0.012,0.072c-0.145,1.174,0.651,2.261,1.82,2.466c1.148,0.204,2.24-0.573,2.443-1.725  C226.802,36.833,226.799,36.8,226.807,36.769L226.807,36.769z M218.209,88.254c0.189-1.181-0.588-2.307-1.763-2.532  c-1.188-0.169-2.297,0.66-2.463,1.853c-0.165,1.135,0.585,2.204,1.706,2.441c1.141,0.238,2.268-0.498,2.506-1.642  C218.202,88.34,218.209,88.294,218.209,88.254L218.209,88.254z M499.021,188.168c1.074-0.857,1.3-2.401,0.502-3.528  c-0.805-1.109-2.35-1.367-3.46-0.57c-1.09,0.847-1.314,2.412-0.502,3.528C496.366,188.706,497.911,188.963,499.021,188.168  L499.021,188.168z M450.435,223.594c1.115-0.803,1.363-2.357,0.568-3.47c-0.794-1.113-2.35-1.367-3.46-0.57  c-1.115,0.803-1.363,2.357-0.568,3.47C447.776,224.139,449.326,224.39,450.435,223.594L450.435,223.594z M284.293,54.286  c0.175-1.385-0.754-2.664-2.126-2.912c-1.374-0.172-2.628,0.813-2.791,2.196c-0.165,1.332,0.749,2.552,2.061,2.778  C282.783,56.533,284.041,55.631,284.293,54.286L284.293,54.286z M274.956,113.777c0.186-1.351-0.714-2.613-2.054-2.862  c-1.356-0.221-2.634,0.701-2.854,2.06c-0.22,1.36,0.699,2.642,2.054,2.862C273.449,116.034,274.716,115.116,274.956,113.777  L274.956,113.777z M393.815,126.171c0.653-1.196,0.28-2.701-0.843-3.464c-1.188-0.67-2.689-0.27-3.388,0.903  c-0.728,1.137-0.402,2.653,0.739,3.385c0.014,0.008,0.032,0.018,0.046,0.025C391.547,127.745,393.085,127.366,393.815,126.171  C393.811,126.178,393.815,126.171,393.815,126.171L393.815,126.171z M362.45,177.604c0.719-1.192,0.341-2.738-0.836-3.46  c0,0,0,0-0.007-0.004c-1.142-0.695-2.641-0.323-3.327,0.827l0,0c-0.712,1.163-0.355,2.689,0.801,3.401  C360.217,179.093,361.722,178.74,362.45,177.604L362.45,177.604z M433.2,138.296c0.722-1.149,0.376-2.678-0.776-3.406  c-1.153-0.731-2.67-0.378-3.398,0.777c-0.7,1.123-0.398,2.606,0.696,3.354C430.891,139.781,432.441,139.456,433.2,138.296  L433.2,138.296z M399.898,188.15c0.753-1.163,0.428-2.717-0.728-3.478c-1.13-0.72-2.634-0.426-3.42,0.656  c-0.74,1.18-0.445,2.728,0.671,3.546C397.593,189.605,399.117,189.277,399.898,188.15L399.898,188.15z M309.547,119.223  c0.238-1.36-0.653-2.668-2.006-2.934c-1.328-0.255-2.616,0.611-2.87,1.943c-0.313,1.299,0.48,2.61,1.774,2.926  c0.035,0.011,0.068,0.019,0.107,0.019c1.336,0.31,2.67-0.53,2.971-1.876C309.537,119.277,309.543,119.251,309.547,119.223  L309.547,119.223z"/>
<polygon fill="#428DFC" points="452.712,21.823 470.789,10.217 482.36,28.347 464.283,39.952 "/>
<polygon fill="#A1C3FC" points="56.946,53.293 77.39,59.857 70.845,80.361 50.401,73.797 "/>
<polygon fill="#E94A47" points="162.041,105.752 186.217,90.232 201.692,114.479 177.516,129.999 "/>
<g>
	<path fill="#428DFC" d="M110.84,194.845c-0.281,0-0.559-0.137-0.728-0.389C86.008,158.357,44.14,135.057,0.845,133.647   c-0.483-0.015-0.862-0.421-0.845-0.906s0.469-0.853,0.903-0.847c43.85,1.426,86.252,25.026,110.665,61.586   c0.269,0.402,0.161,0.947-0.24,1.218C111.176,194.798,111.007,194.845,110.84,194.845z"/>
</g>
<g>
	<path fill="#428DFC" d="M108.487,279c-0.173,0-0.348-0.051-0.5-0.158c-26.988-18.914-64.795-21.48-94.076-6.389   c-0.434,0.223-0.958,0.053-1.178-0.379c-0.22-0.429-0.051-0.96,0.378-1.181c29.842-15.385,68.372-12.764,95.877,6.508   c0.398,0.277,0.493,0.825,0.216,1.221C109.035,278.87,108.764,279,108.487,279z"/>
</g>
<g>
	<path fill="#428DFC" d="M317.141,172.811c-0.204,0-0.408-0.07-0.574-0.214c-0.363-0.317-0.405-0.872-0.087-1.239   c26.751-30.942,67.08-48.786,107.916-47.673c0.481,0.012,0.862,0.065,0.85,0.55c-0.014,0.475-0.401,0.501-0.875,0.501   c-0.007,0-0.015,0-0.025,0c-40.29,0-80.132,16.869-106.546,47.418C317.627,172.357,317.384,172.811,317.141,172.811z"/>
</g>

            </g>
        </g>
    </g>
    
    <!-- ITEM 3 -->
    <g>
        <defs>
            <clipPath id="clip-path-id-viewbox-item-3">
                <rect x="0.0" y="0.0" width="385.0" height="300.0"/>
            </clipPath>
        </defs>
        <g transform="translate(959.0 169.0) rotate(328.1227029941077 138.0 107.5) scale(0.7168831168831169 0.7166666666666667)">
            <g clip-path="url(#clip-path-id-viewbox-item-3)" transform="translate(-0.0 -0.0)">
                
<g id="message-i3">
	
		<linearGradient id="bottom_1_-i3" gradientUnits="userSpaceOnUse" x1="179.0632" y1="-163.3896" x2="154.1742" y2="521.0507" gradientTransform="matrix(0.5555 0 0 -0.5555 100 251.1035)">
		<stop offset="0.0898" style="stop-color:#EEEEEE"/>
		<stop offset="0.8178" style="stop-color:#D6D7D8"/>
	</linearGradient>
	<rect id="bottom-i3" fill="url(#bottom_1_-i3)" width="385" height="300"/>
	<polygon id="top-i3" fill="#EEEEEE" points="0,0 192.5,150.018 385,0  "/>
</g>

            </g>
        </g>
    </g>
    
    <!-- ITEM 4 -->
    <g>
        <defs>
            <clipPath id="clip-path-id-viewbox-item-4">
                <rect x="0.0" y="0.0" width="300.0" height="165.0"/>
            </clipPath>
        </defs>
        <g transform="translate(189.0 782.0) rotate(0.0 411.0 226.0) scale(2.74 2.7393939393939393)">
            <g clip-path="url(#clip-path-id-viewbox-item-4)" transform="translate(-0.0 -0.0)">
                
<linearGradient id="SVGID_1_-i4" gradientUnits="userSpaceOnUse" x1="430.0075" y1="984.75" x2="1066.9924" y2="984.75" gradientTransform="matrix(0.4 0 0 0.4 -149.4 -311.4)">
	<stop offset="0" style="stop-color:#81AEF2"/>
	<stop offset="1" style="stop-color:#78A9EF"/>
</linearGradient>
<rect x="22.603" fill="url(#SVGID_1_-i4)" width="254.794" height="165"/>
<rect x="28.768" y="12.81" fill="#FFFFFF" width="242.465" height="127.082"/>
<g>
	
		<linearGradient id="SVGID_2_-i4" gradientUnits="userSpaceOnUse" x1="731.7725" y1="996.9672" x2="1013.7675" y2="996.9672" gradientTransform="matrix(0.4 0 0 0.4 -149.4 -311.4)">
		<stop offset="0" style="stop-color:#DEEAFE"/>
		<stop offset="1" style="stop-color:#A1C3FC"/>
	</linearGradient>
	<path fill="url(#SVGID_2_-i4)" d="M256.107,114.98H143.309V74.31c0-8.004,6.528-14.517,14.554-14.517h98.243   C256.107,59.793,256.107,114.98,256.107,114.98z M144.85,113.443h109.715V61.331h-96.702c-7.175,0-13.013,5.824-13.013,12.979   C144.85,74.31,144.85,113.443,144.85,113.443z"/>
</g>
<g>
	
		<linearGradient id="SVGID_3_-i4" gradientUnits="userSpaceOnUse" x1="644.5525" y1="1038.5775" x2="926.5475" y2="1038.5775" gradientTransform="matrix(0.4 0 0 0.4 -149.4 -311.4)">
		<stop offset="0" style="stop-color:#DEEAFE"/>
		<stop offset="1" style="stop-color:#A1C3FC"/>
	</linearGradient>
	<path fill="url(#SVGID_3_-i4)" d="M221.218,131.624H108.421V90.955c0-8.004,6.528-14.517,14.553-14.517h98.245L221.218,131.624   L221.218,131.624z M109.962,130.087h109.715V77.976h-96.704c-7.175,0-13.011,5.824-13.011,12.979V130.087z"/>
</g>
<linearGradient id="SVGID_4_-i4" gradientUnits="userSpaceOnUse" x1="480.7475" y1="870.7595" x2="1020.2424" y2="870.7595" gradientTransform="matrix(0.4 0 0 0.4 -149.4 -311.4)">
	<stop offset="0" style="stop-color:#DEEAFE"/>
	<stop offset="1" style="stop-color:#A1C3FC"/>
</linearGradient>
<path fill="url(#SVGID_4_-i4)" d="M258.697,49.366H42.899V35.769c0-6.256,5.084-11.328,11.356-11.328h204.441v24.925H258.697z"/>
<rect y="153.727" fill="#A1C3FC" width="300" height="11.273"/>
<linearGradient id="SVGID_5_-i4" gradientUnits="userSpaceOnUse" x1="568.7075" y1="866.8966" x2="602.1" y2="866.8966" gradientTransform="matrix(0.4 0 0 0.4 -149.4 -311.4)">
	<stop offset="0" style="stop-color:#A1C3FC"/>
	<stop offset="1" style="stop-color:#78A9EF"/>
</linearGradient>
<rect x="78.083" y="28.697" fill="url(#SVGID_5_-i4)" width="13.357" height="13.324"/>
<linearGradient id="SVGID_6_-i4" gradientUnits="userSpaceOnUse" x1="774.925" y1="984.7812" x2="808.3175" y2="984.7812" gradientTransform="matrix(0.4 0 0 0.4 -149.4 -311.4)">
	<stop offset="0" style="stop-color:#A1C3FC"/>
	<stop offset="1" style="stop-color:#78A9EF"/>
</linearGradient>
<rect x="160.57" y="75.851" fill="url(#SVGID_6_-i4)" width="13.357" height="13.324"/>
<rect x="78.354" y="30.524" fill="#FFFFFF" width="3.654" height="3.645"/>
<rect x="257.848" y="128.581" fill="#1D72D8" width="3.654" height="3.645"/>
<rect x="153.538" y="144.959" fill="#F6F6F6" width="3.654" height="3.645"/>
<linearGradient id="SVGID_7_-i4" gradientUnits="userSpaceOnUse" x1="589.13" y1="910.1915" x2="614.8625" y2="910.1915" gradientTransform="matrix(0.4 0 0 0.4 -149.4 -311.4)">
	<stop offset="0" style="stop-color:#A1C3FC"/>
	<stop offset="1" style="stop-color:#78A9EF"/>
</linearGradient>
<rect x="86.252" y="47.543" fill="url(#SVGID_7_-i4)" width="10.293" height="10.267"/>
<linearGradient id="SVGID_8_-i4" gradientUnits="userSpaceOnUse" x1="887.265" y1="877.8319" x2="912.9975" y2="877.8319" gradientTransform="matrix(0.4 0 0 0.4 -149.4 -311.4)">
	<stop offset="0" style="stop-color:#A1C3FC"/>
	<stop offset="1" style="stop-color:#78A9EF"/>
</linearGradient>
<rect x="205.506" y="34.599" fill="url(#SVGID_8_-i4)" width="10.293" height="10.267"/>
<rect x="186.613" y="58.031" fill="#1D72D8" width="10.293" height="10.267"/>
<rect x="70.695" y="56.503" fill="#E94A47" width="7.228" height="7.21"/>
<rect x="135.037" y="70.256" fill="#1D72D8" width="7.228" height="7.21"/>
<linearGradient id="SVGID_9_-i4" gradientUnits="userSpaceOnUse" x1="594.2375" y1="964.4255" x2="609.7575" y2="964.4255" gradientTransform="matrix(0.4 0 0 0.4 -149.4 -311.4)">
	<stop offset="0" style="stop-color:#A1C3FC"/>
	<stop offset="1" style="stop-color:#78A9EF"/>
</linearGradient>
<rect x="88.295" y="71.274" fill="url(#SVGID_9_-i4)" width="6.208" height="6.193"/>
<linearGradient id="SVGID_10_-i4" gradientUnits="userSpaceOnUse" x1="594.2375" y1="1066.3048" x2="609.7575" y2="1066.3048" gradientTransform="matrix(0.4 0 0 0.4 -149.4 -311.4)">
	<stop offset="0" style="stop-color:#A1C3FC"/>
	<stop offset="1" style="stop-color:#78A9EF"/>
</linearGradient>
<rect x="88.295" y="112.026" fill="url(#SVGID_10_-i4)" width="6.208" height="6.193"/>
<rect x="28.768" y="155.777" fill="#85B3EA" width="28.768" height="7.174"/>
<rect x="67.743" y="155.777" fill="#85B3EA" width="19.871" height="7.174"/>

            </g>
        </g>
    </g>
    
    <!-- ITEM 5 -->
    <g>
        <defs>
            <clipPath id="clip-path-id-viewbox-item-5">
                <rect x="0.0" y="0.0" width="385.0" height="300.0"/>
            </clipPath>
        </defs>
        <g transform="translate(946.0 576.0) rotate(332.9147056137661 116.0 90.5) scale(0.6025974025974026 0.6033333333333334)">
            <g clip-path="url(#clip-path-id-viewbox-item-5)" transform="translate(-0.0 -0.0)">
                
<g id="message-i5">
	
		<linearGradient id="bottom_1_-i5" gradientUnits="userSpaceOnUse" x1="179.0632" y1="-163.3896" x2="154.1742" y2="521.0507" gradientTransform="matrix(0.5555 0 0 -0.5555 100 251.1035)">
		<stop offset="0.0898" style="stop-color:#EEEEEE"/>
		<stop offset="0.8178" style="stop-color:#D6D7D8"/>
	</linearGradient>
	<rect id="bottom-i5" fill="url(#bottom_1_-i5)" width="385" height="300"/>
	<polygon id="top-i5" fill="#EEEEEE" points="0,0 192.5,150.018 385,0  "/>
</g>

            </g>
        </g>
    </g>
    
    <!-- ITEM 6 -->
    <g>
        <defs>
            <clipPath id="clip-path-id-viewbox-item-6">
                <rect x="0.0" y="0.0" width="385.0" height="300.0"/>
            </clipPath>
        </defs>
        <g transform="translate(623.0 379.0) rotate(302.2436024285824 70.5 55.0) scale(0.36623376623376624 0.36666666666666664)">
            <g clip-path="url(#clip-path-id-viewbox-item-6)" transform="translate(-0.0 -0.0)">
                
<g id="message-i6">
	
		<linearGradient id="bottom_1_-i6" gradientUnits="userSpaceOnUse" x1="179.0632" y1="-163.3896" x2="154.1742" y2="521.0507" gradientTransform="matrix(0.5555 0 0 -0.5555 100 251.1035)">
		<stop offset="0.0898" style="stop-color:#EEEEEE"/>
		<stop offset="0.8178" style="stop-color:#D6D7D8"/>
	</linearGradient>
	<rect id="bottom-i6" fill="url(#bottom_1_-i6)" width="385" height="300"/>
	<polygon id="top-i6" fill="#EEEEEE" points="0,0 192.5,150.018 385,0  "/>
</g>

            </g>
        </g>
    </g>
    
    <!-- ITEM 7 -->
    <g>
        <defs>
            <clipPath id="clip-path-id-viewbox-item-7">
                <rect x="0.0" y="0.0" width="385.0" height="300.0"/>
            </clipPath>
        </defs>
        <g transform="translate(547.0 667.0) rotate(324.35956764550946 95.0 74.0) scale(0.4935064935064935 0.49333333333333335)">
            <g clip-path="url(#clip-path-id-viewbox-item-7)" transform="translate(-0.0 -0.0)">
                
<g id="message-i7">
	
		<linearGradient id="bottom_1_-i7" gradientUnits="userSpaceOnUse" x1="179.0632" y1="-163.3896" x2="154.1742" y2="521.0507" gradientTransform="matrix(0.5555 0 0 -0.5555 100 251.1035)">
		<stop offset="0.0898" style="stop-color:#EEEEEE"/>
		<stop offset="0.8178" style="stop-color:#D6D7D8"/>
	</linearGradient>
	<rect id="bottom-i7" fill="url(#bottom_1_-i7)" width="385" height="300"/>
	<polygon id="top-i7" fill="#EEEEEE" points="0,0 192.5,150.018 385,0  "/>
</g>

            </g>
        </g>
    </g>
    
</svg>