<?xml version="1.0" encoding="UTF-8"?><svg version="1.1" xmlns="http://www.w3.org/2000/svg" xmlns:xlink="http://www.w3.org/1999/xlink" viewBox="0 0 1600 1200" width="1600" height="1200" x="0px" y="0px">
              
              <!-- ITEM 0 -->
<g>
    <defs>
        
        <clipPath id="clip-path-id-viewbox-item-0">
            <rect x="0.0" y="0.0" width="282.0" height="300.0"/>
        </clipPath>
    </defs>
    <g transform="translate(119.0 110.0) rotate(0.0 339.0 361.0) scale(2.404255319148936 2.4066666666666667)">
        <g clip-path="url(#clip-path-id-viewbox-item-0)" transform="translate(-0.0 -0.0)">

<linearGradient id="SVGID_1_-i0" gradientUnits="userSpaceOnUse" x1="1876.5844" y1="-3124.0313" x2="2823.7722" y2="-3124.0313" gradientTransform="matrix(0.1875 -0.0696 -0.0696 -0.1875 -497.8444 -243.9663)">
	<stop offset="0" style="stop-color:#23286B"/>
	<stop offset="1" style="stop-color:#151A4F"/>
</linearGradient>
<polygon fill="url(#SVGID_1_-i0)" points="282,234.033 104.443,300 38.493,122.4 216.05,56.434 "/>
<path fill="#A1C3FC" d="M91.398,62.484h-1.062c0.357,0.191,0.708,0.387,1.062,0.584V62.484z"/>
<path fill="#A1C3FC" d="M89.883,173.387h4.544v-3.056c-1.475,0.936-2.99,1.814-4.544,2.629  C89.883,172.96,89.883,173.387,89.883,173.387z"/>
<path fill="#A1C3FC" d="M51,58.484v-2.514c-1.536,0.248-3.049,0.557-4.544,0.914v1.598H51V58.484z"/>
<path fill="#A1C3FC" d="M61.857,58.484v-3.299c-0.285-0.004-0.569-0.022-0.854-0.022c-1.24,0-2.468,0.046-3.69,0.118v3.204h4.544  V58.484z"/>
<path fill="#A1C3FC" d="M72.714,58.484v-2.209c-1.497-0.284-3.012-0.515-4.544-0.691v2.9H72.714z"/>
<path fill="#A1C3FC" d="M81.087,58.484c-0.682-0.231-1.366-0.459-2.058-0.668v0.668H81.087z"/>
<path fill="#A1C3FC" d="M26.258,69.719v-3.991c-1.568,1.054-3.082,2.179-4.544,3.366v0.625h4.544V69.719z"/>
<rect x="32.571" y="62.484" fill="#A1C3FC" width="4.544" height="7.235"/>
<rect x="43.427" y="62.484" fill="#A1C3FC" width="4.544" height="7.235"/>
<rect x="54.283" y="62.484" fill="#A1C3FC" width="4.544" height="7.235"/>
<rect x="65.141" y="62.484" fill="#A1C3FC" width="4.544" height="7.235"/>
<rect x="75.997" y="62.484" fill="#A1C3FC" width="4.544" height="7.235"/>
<path fill="#A1C3FC" d="M86.854,69.719h4.544v-6.651c-0.352-0.197-0.705-0.394-1.062-0.584h-3.483  C86.854,62.484,86.854,69.719,86.854,69.719z"/>
<path fill="#A1C3FC" d="M101.054,69.719c-1.084-0.907-2.2-1.775-3.344-2.607v2.607H101.054z"/>
<path fill="#A1C3FC" d="M18.432,81.465V74.23h-2.31c-0.766,0.794-1.509,1.606-2.234,2.439v4.796  C13.886,81.465,18.432,81.465,18.432,81.465z"/>
<rect x="24.743" y="74.231" fill="#A1C3FC" width="4.544" height="7.235"/>
<rect x="35.599" y="74.231" fill="#A1C3FC" width="4.544" height="7.235"/>
<rect x="46.456" y="74.231" fill="#A1C3FC" width="4.544" height="7.235"/>
<rect x="57.313" y="74.231" fill="#A1C3FC" width="4.544" height="7.235"/>
<rect x="68.169" y="74.231" fill="#A1C3FC" width="4.544" height="7.235"/>
<rect x="79.026" y="74.231" fill="#A1C3FC" width="4.544" height="7.235"/>
<rect x="89.883" y="74.231" fill="#A1C3FC" width="4.544" height="7.235"/>
<rect x="100.74" y="74.231" fill="#A1C3FC" width="4.544" height="7.235"/>
<path fill="#A1C3FC" d="M111.896,81.465c-0.099-0.14-0.198-0.281-0.298-0.421v0.421H111.896z"/>
<path fill="#A1C3FC" d="M4.544,90.951c-0.273,0.578-0.534,1.161-0.789,1.747h0.789V90.951z"/>
<rect x="10.857" y="85.465" fill="#A1C3FC" width="4.544" height="7.235"/>
<rect x="21.713" y="85.465" fill="#A1C3FC" width="4.544" height="7.235"/>
<rect x="32.571" y="85.465" fill="#A1C3FC" width="4.544" height="7.235"/>
<rect x="43.427" y="85.465" fill="#A1C3FC" width="4.544" height="7.235"/>
<rect x="54.283" y="85.465" fill="#A1C3FC" width="4.544" height="7.235"/>
<rect x="65.141" y="85.465" fill="#A1C3FC" width="4.544" height="7.235"/>
<rect x="75.997" y="85.465" fill="#A1C3FC" width="4.544" height="7.235"/>
<rect x="86.854" y="85.465" fill="#A1C3FC" width="4.544" height="7.235"/>
<rect x="97.711" y="85.465" fill="#A1C3FC" width="4.544" height="7.235"/>
<rect x="108.567" y="85.465" fill="#A1C3FC" width="4.544" height="7.235"/>
<rect x="3.029" y="97.212" fill="#A1C3FC" width="4.544" height="7.235"/>
<rect x="13.886" y="97.212" fill="#A1C3FC" width="4.544" height="7.235"/>
<rect x="24.743" y="97.212" fill="#A1C3FC" width="4.544" height="7.235"/>
<rect x="35.599" y="97.212" fill="#A1C3FC" width="4.544" height="7.235"/>
<rect x="46.456" y="97.212" fill="#A1C3FC" width="4.544" height="7.235"/>
<rect x="57.313" y="97.212" fill="#A1C3FC" width="4.544" height="7.235"/>
<rect x="68.169" y="97.212" fill="#A1C3FC" width="4.544" height="7.235"/>
<rect x="79.026" y="97.212" fill="#A1C3FC" width="4.544" height="7.235"/>
<rect x="89.883" y="97.212" fill="#A1C3FC" width="4.544" height="7.235"/>
<rect x="100.74" y="97.212" fill="#A1C3FC" width="4.544" height="7.235"/>
<rect x="111.596" y="97.212" fill="#A1C3FC" width="4.544" height="7.235"/>
<rect x="0" y="108.446" fill="#A1C3FC" width="4.544" height="7.235"/>
<rect x="10.857" y="108.446" fill="#A1C3FC" width="4.544" height="7.235"/>
<rect x="21.713" y="108.446" fill="#A1C3FC" width="4.544" height="7.235"/>
<rect x="32.571" y="108.446" fill="#A1C3FC" width="4.544" height="7.235"/>
<rect x="43.427" y="108.446" fill="#A1C3FC" width="4.544" height="7.235"/>
<rect x="54.283" y="108.446" fill="#A1C3FC" width="4.544" height="7.235"/>
<rect x="65.141" y="108.446" fill="#A1C3FC" width="4.544" height="7.235"/>
<rect x="75.997" y="108.446" fill="#A1C3FC" width="4.544" height="7.235"/>
<rect x="86.854" y="108.446" fill="#A1C3FC" width="4.544" height="7.235"/>
<rect x="97.711" y="108.446" fill="#A1C3FC" width="4.544" height="7.235"/>
<rect x="108.567" y="108.446" fill="#A1C3FC" width="4.544" height="7.235"/>
<path fill="#A1C3FC" d="M119.424,115.681h3.958c-0.075-2.449-0.277-4.864-0.626-7.235h-3.332V115.681z"/>
<rect x="3.029" y="120.191" fill="#A1C3FC" width="4.544" height="7.235"/>
<rect x="13.886" y="120.191" fill="#A1C3FC" width="4.544" height="7.235"/>
<rect x="24.743" y="120.191" fill="#A1C3FC" width="4.544" height="7.235"/>
<rect x="35.599" y="120.191" fill="#A1C3FC" width="4.544" height="7.235"/>
<rect x="46.456" y="120.191" fill="#A1C3FC" width="4.544" height="7.235"/>
<rect x="57.313" y="120.191" fill="#A1C3FC" width="4.544" height="7.235"/>
<rect x="68.169" y="120.191" fill="#A1C3FC" width="4.544" height="7.235"/>
<rect x="79.026" y="120.191" fill="#A1C3FC" width="4.544" height="7.235"/>
<rect x="89.883" y="120.191" fill="#A1C3FC" width="4.544" height="7.235"/>
<rect x="100.74" y="120.191" fill="#A1C3FC" width="4.544" height="7.235"/>
<rect x="111.596" y="120.191" fill="#A1C3FC" width="4.544" height="7.235"/>
<path fill="#A1C3FC" d="M122.453,120.191v7.235h0.202c0.374-2.369,0.609-4.785,0.71-7.235H122.453z"/>
<path fill="#A1C3FC" d="M4.544,131.425H0.13c0.558,2.47,1.253,4.886,2.094,7.235h2.32C4.544,138.661,4.544,131.425,4.544,131.425z"/>
<rect x="10.857" y="131.425" fill="#A1C3FC" width="4.544" height="7.235"/>
<rect x="21.713" y="131.425" fill="#A1C3FC" width="4.544" height="7.235"/>
<rect x="32.571" y="131.425" fill="#A1C3FC" width="4.544" height="7.235"/>
<rect x="43.427" y="131.425" fill="#A1C3FC" width="4.544" height="7.235"/>
<rect x="54.283" y="131.425" fill="#A1C3FC" width="4.544" height="7.235"/>
<rect x="65.141" y="131.425" fill="#A1C3FC" width="4.544" height="7.235"/>
<rect x="75.997" y="131.425" fill="#A1C3FC" width="4.544" height="7.235"/>
<rect x="86.854" y="131.425" fill="#A1C3FC" width="4.544" height="7.235"/>
<rect x="97.711" y="131.425" fill="#A1C3FC" width="4.544" height="7.235"/>
<rect x="108.567" y="131.425" fill="#A1C3FC" width="4.544" height="7.235"/>
<path fill="#A1C3FC" d="M119.424,138.661h0.358c0.841-2.348,1.537-4.765,2.094-7.235h-2.454v7.235H119.424z"/>
<path fill="#A1C3FC" d="M4.053,143.172c1.044,2.323,2.212,4.579,3.52,6.741v-6.741H4.053z"/>
<rect x="13.886" y="143.172" fill="#A1C3FC" width="4.544" height="7.235"/>
<rect x="24.743" y="143.172" fill="#A1C3FC" width="4.544" height="7.235"/>
<rect x="35.599" y="143.172" fill="#A1C3FC" width="4.544" height="7.235"/>
<rect x="46.456" y="143.172" fill="#A1C3FC" width="4.544" height="7.235"/>
<rect x="57.313" y="143.172" fill="#A1C3FC" width="4.544" height="7.235"/>
<rect x="68.169" y="143.172" fill="#A1C3FC" width="4.544" height="7.235"/>
<rect x="79.026" y="143.172" fill="#A1C3FC" width="4.544" height="7.235"/>
<rect x="89.883" y="143.172" fill="#A1C3FC" width="4.544" height="7.235"/>
<rect x="100.74" y="143.172" fill="#A1C3FC" width="4.544" height="7.235"/>
<path fill="#A1C3FC" d="M111.596,143.172v7.235h2.524c0.711-1.149,1.383-2.322,2.02-3.518v-3.717H111.596z"/>
<path fill="#A1C3FC" d="M10.857,154.405v0.387c1.411,1.9,2.932,3.709,4.544,5.433v-5.821h-4.544V154.405z"/>
<rect x="21.713" y="154.405" fill="#A1C3FC" width="4.544" height="7.235"/>
<rect x="32.571" y="154.405" fill="#A1C3FC" width="4.544" height="7.235"/>
<rect x="43.427" y="154.405" fill="#A1C3FC" width="4.544" height="7.235"/>
<rect x="54.283" y="154.405" fill="#A1C3FC" width="4.544" height="7.235"/>
<rect x="65.141" y="154.405" fill="#A1C3FC" width="4.544" height="7.235"/>
<rect x="75.997" y="154.405" fill="#A1C3FC" width="4.544" height="7.235"/>
<rect x="86.854" y="154.405" fill="#A1C3FC" width="4.544" height="7.235"/>
<rect x="97.711" y="154.405" fill="#A1C3FC" width="4.544" height="7.235"/>
<path fill="#A1C3FC" d="M108.567,158.025c0.996-1.171,1.951-2.378,2.859-3.621h-2.859V158.025z"/>
<path fill="#A1C3FC" d="M24.743,166.152v2.265c1.47,1.051,2.983,2.042,4.544,2.966v-5.231L24.743,166.152L24.743,166.152z"/>
<rect x="35.599" y="166.152" fill="#A1C3FC" width="4.544" height="7.235"/>
<rect x="46.456" y="166.152" fill="#A1C3FC" width="4.544" height="7.235"/>
<rect x="57.313" y="166.152" fill="#A1C3FC" width="4.544" height="7.235"/>
<rect x="68.169" y="166.152" fill="#A1C3FC" width="4.544" height="7.235"/>
<rect x="79.026" y="166.152" fill="#A1C3FC" width="4.544" height="7.235"/>
<path fill="#A1C3FC" d="M89.883,166.152v6.807c1.554-0.813,3.07-1.692,4.544-2.629v-4.179L89.883,166.152L89.883,166.152z"/>
<path fill="#A1C3FC" d="M43.427,177.386v0.134c1.494,0.437,3.007,0.829,4.544,1.153v-1.287H43.427z"/>
<path fill="#A1C3FC" d="M54.283,177.386v2.296c1.499,0.161,3.015,0.258,4.544,0.31v-2.606H54.283z"/>
<path fill="#A1C3FC" d="M65.141,177.386v2.509c1.53-0.101,3.047-0.254,4.544-0.463v-2.047H65.141z"/>
<path fill="#A1C3FC" d="M75.997,178.222c1.029-0.253,2.048-0.532,3.057-0.836h-3.057V178.222z"/>
<rect x="135.797" y="2.065" transform="matrix(-0.7511 -0.6602 0.6602 -0.7511 241.9085 105.371)" fill="#23286B" width="10.04" height="10.04"/>
<rect x="156.081" y="46.829" transform="matrix(-0.7511 -0.6602 0.6602 -0.7511 247.8769 197.1477)" fill="#89B3F4" width="10.04" height="10.04"/>
<g>
	<path fill="#78A9EF" d="M175.613,56.113c-0.264,0-0.482-0.207-0.495-0.474c-0.105-2.28,0.036-10.28,6.292-17.427   c6.256-7.15,15.456-11.144,19.795-10.25c0.269,0.054,0.439,0.317,0.387,0.585c-0.055,0.269-0.322,0.437-0.586,0.386   c-4.059-0.83-12.99,3.236-18.85,9.932c-6.01,6.869-6.147,14.542-6.048,16.73c0.014,0.274-0.198,0.505-0.472,0.517   C175.628,56.113,175.621,56.113,175.613,56.113z"/>
</g>
<g>
	<path fill="#78A9EF" d="M135.171,53.963c-0.228,0-0.435-0.158-0.483-0.39c-2.716-12.41-10.917-23.589-21.935-29.906   c-0.238-0.136-0.32-0.439-0.184-0.676c0.136-0.238,0.438-0.32,0.676-0.184c11.258,6.455,19.636,17.877,22.411,30.554   c0.059,0.267-0.111,0.532-0.378,0.591C135.24,53.96,135.205,53.963,135.171,53.963z"/>
</g>
<g>
	<path fill="#E94A47" d="M255.508,205.995l-50.767-15.467c-1.084,1.379-2.062,2.874-2.901,4.488   c-0.712,1.37-1.299,2.774-1.772,4.193l54.485,16.597C255.457,212.566,255.761,209.248,255.508,205.995z"/>
	<path fill="#E94A47" d="M240.598,183.081l-10.743-3.273c-6.47-0.625-12.949,0.997-18.339,4.518l41.827,12.742   C250.903,191.285,246.541,186.276,240.598,183.081z"/>
	<path fill="#E94A47" d="M233.295,235.974l-26.823-8.172c2.114,2.224,4.621,4.144,7.493,5.64   C220.152,236.662,226.979,237.381,233.295,235.974z"/>
	<path fill="#E94A47" d="M251.356,223.104l-52.711-16.057c-0.14,3.621,0.418,7.216,1.608,10.594l43.888,13.37   C246.961,228.911,249.422,226.252,251.356,223.104z"/>
</g>

        </g>
    </g>
</g>

<!-- ITEM 1 -->
<g>
    <defs>
        
        <clipPath id="clip-path-id-viewbox-item-1">
            <rect x="0.0" y="0.0" width="300.0" height="410.0"/>
        </clipPath>
    </defs>
    <g transform="translate(907.0 264.0) rotate(0.0 301.0 411.0) scale(2.006666666666667 2.004878048780488)">
        <g clip-path="url(#clip-path-id-viewbox-item-1)" transform="translate(-0.0 -0.0)">

<linearGradient id="SVGID_1_-i1" gradientUnits="userSpaceOnUse" x1="92.1628" y1="31.8688" x2="191.5016" y2="31.8688" gradientTransform="matrix(1 0 0 -1 0 392)">
	<stop offset="0" style="stop-color:#EFEFEF"/>
	<stop offset="0.5538" style="stop-color:#D7D8D9"/>
</linearGradient>
<ellipse fill="url(#SVGID_1_-i1)" cx="141.832" cy="360.131" rx="49.669" ry="49.869"/>
<linearGradient id="SVGID_2_-i1" gradientUnits="userSpaceOnUse" x1="64.3362" y1="471.1882" x2="83.9383" y2="471.1882" gradientTransform="matrix(0.9969 0.0787 0.0787 -0.9969 17.5825 507.5454)">
	<stop offset="0" style="stop-color:#FFB02A"/>
	<stop offset="1" style="stop-color:#FF9300"/>
</linearGradient>
<path fill="url(#SVGID_2_-i1)" d="M129.244,35.067c-5.396-0.427-10.375,6.912-11.119,16.393l19.541,1.548  C138.41,43.528,134.64,35.496,129.244,35.067z"/>
<rect x="122.889" y="39.935" transform="matrix(-0.9969 -0.079 0.079 -0.9969 247.2126 94.8617)" fill="#FFFFFF" width="5.189" height="5.209"/>
<ellipse fill="#1B236D" cx="137.266" cy="250.37" rx="30.257" ry="30.378"/>
<polygon fill="#1B236D" points="218.753,220.325 266.83,226.56 265.29,238.526 217.214,232.292 "/>
<polygon fill="#1B236D" points="32.516,37.551 37.188,85.991 25.228,87.154 20.555,38.714 "/>
<linearGradient id="SVGID_3_-i1" gradientUnits="userSpaceOnUse" x1="135.7837" y1="65.1328" x2="234.2486" y2="65.1328" gradientTransform="matrix(0.996 -0.0899 -0.0899 -0.996 -46.0929 266.5071)">
	<stop offset="0" style="stop-color:#92C4FE"/>
	<stop offset="1" style="stop-color:#5BABF2"/>
</linearGradient>
<polygon fill="url(#SVGID_3_-i1)" points="185.766,229.774 87.735,238.654 78.889,140.231 176.92,131.35 "/>
<linearGradient id="SVGID_4_-i1" gradientUnits="userSpaceOnUse" x1="45.4207" y1="433.1395" x2="105.2259" y2="433.1395" gradientTransform="matrix(0.9969 0.0787 0.0787 -0.9969 17.5825 507.5454)">
	<stop offset="0" style="stop-color:#92C4FE"/>
	<stop offset="1" style="stop-color:#5BABF2"/>
</linearGradient>
<polygon fill="url(#SVGID_4_-i1)" points="154.208,113.956 94.61,109.234 99.313,49.397 158.911,54.119 "/>
<radialGradient id="SVGID_5_-i1" cx="310.3544" cy="5.9395" r="9.4676" gradientTransform="matrix(0.996 -0.0903 -0.0899 -1 -46.0929 267.5574)" gradientUnits="userSpaceOnUse">
	<stop offset="0" style="stop-color:#FF4945"/>
	<stop offset="1" style="stop-color:#F92424"/>
</radialGradient>
<ellipse fill="url(#SVGID_5_-i1)" cx="262.461" cy="233.607" rx="9.48" ry="9.518"/>
<radialGradient id="SVGID_6_-i1" cx="-233.0699" cy="761.7791" r="9.4823" gradientTransform="matrix(0.9626 0.2721 0.271 -0.9665 45.1083 833.6573)" gradientUnits="userSpaceOnUse">
	<stop offset="0" style="stop-color:#FF4945"/>
	<stop offset="1" style="stop-color:#F92424"/>
</radialGradient>
<ellipse fill="url(#SVGID_6_-i1)" cx="27.197" cy="34.01" rx="9.48" ry="9.518"/>
<ellipse fill="#1B236D" cx="46.07" cy="392.905" rx="16.338" ry="16.404"/>
<g>
	<path fill="#1B236D" d="M142.584,377.108c-9.342,0-16.943-7.631-16.943-17.011s7.601-17.011,16.943-17.011   c9.342,0,16.943,7.631,16.943,17.011S151.926,377.108,142.584,377.108z M142.584,347.947c-6.673,0-12.102,5.45-12.102,12.151   c0,6.7,5.429,12.151,12.102,12.151c6.673,0,12.102-5.45,12.102-12.151C154.685,353.397,149.257,347.947,142.584,347.947z"/>
</g>
<g>
	<path fill="#1B236D" d="M43.675,383.88l-3.682-3.157c26.687-31.373,60.82-43.995,101.457-37.518l-0.759,4.8   C101.284,341.723,69.552,353.459,43.675,383.88z"/>
</g>
<polygon fill="#5BABF2" points="54.51,394.054 44.01,400.095 37.992,389.552 48.493,383.511 "/>
<polygon fill="#5BABF2" points="106.053,68.9 117.08,69.774 116.209,80.845 105.183,79.971 "/>
<polygon fill="#5BABF2" points="129.943,70.794 140.97,71.668 140.099,82.739 129.073,81.865 "/>
<path fill="#5BABF2" d="M121.878,94.555c5.396,0.427,10.116-3.618,10.542-9.035l-19.541-1.548  C112.452,89.388,116.482,94.127,121.878,94.555z"/>
<rect x="102.704" y="52.453" transform="matrix(-0.9969 -0.079 0.079 -0.9969 205.9163 118.2622)" fill="#1B236D" width="5.189" height="5.209"/>
<rect x="150.304" y="56.226" transform="matrix(-0.9969 -0.079 0.079 -0.9969 300.6694 129.5574)" fill="#1B236D" width="5.189" height="5.209"/>
<rect x="98.824" y="101.786" transform="matrix(-0.9969 -0.079 0.079 -0.9969 194.2714 216.468)" fill="#1B236D" width="5.189" height="5.209"/>
<rect x="146.425" y="105.559" transform="matrix(-0.9969 -0.079 0.079 -0.9969 289.0266 227.7636)" fill="#1B236D" width="5.189" height="5.209"/>
<polygon fill="#1B236D" points="133.012,225.166 139.393,224.587 139.969,230.994 133.588,231.572 "/>
<polygon fill="#1B236D" points="89.617,229.099 95.998,228.52 96.574,234.927 90.193,235.505 "/>
<polygon fill="#1B236D" points="176.407,221.232 182.788,220.654 183.364,227.061 176.983,227.639 "/>
<g>
	<path fill="#1B236D" d="M111.492,135.583c-0.619,0-1.148-0.475-1.204-1.106c-0.06-0.668,0.431-1.259,1.097-1.319l26.639-2.413   c0.667-0.055,1.254,0.433,1.314,1.101c0.06,0.668-0.431,1.259-1.097,1.319l-26.639,2.413   C111.565,135.582,111.528,135.583,111.492,135.583z"/>
</g>
<g>
	<path fill="#1B236D" d="M110.982,129.444c-0.667,0-1.208-0.542-1.211-1.211c-0.002-0.671,0.537-1.218,1.206-1.22l26.807-0.095   c0.001,0,0.002,0,0.004,0c0.667,0,1.208,0.542,1.211,1.211c0.002,0.671-0.537,1.218-1.206,1.22l-26.807,0.095   C110.985,129.444,110.984,129.444,110.982,129.444z"/>
</g>
<g>
	<path fill="#1B236D" d="M110.643,125.702c-0.664,0-1.206-0.538-1.211-1.207c-0.004-0.671,0.534-1.219,1.202-1.223l26.803-0.174   c0.654,0.029,1.214,0.536,1.218,1.207c0.004,0.67-0.534,1.219-1.202,1.223l-26.803,0.174   C110.649,125.702,110.646,125.702,110.643,125.702z"/>
</g>
<g>
	<path fill="#1B236D" d="M137.104,121.707c-0.026,0-0.052,0-0.079-0.002l-27.476-1.788c-0.667-0.044-1.173-0.621-1.129-1.292   c0.043-0.669,0.59-1.187,1.287-1.134l27.476,1.788c0.667,0.044,1.173,0.621,1.129,1.292   C138.269,121.213,137.737,121.707,137.104,121.707z"/>
</g>
<g>
	<path fill="#1B236D" d="M128.08,296.96c-0.597,0-1.117-0.444-1.199-1.054c-0.089-0.665,0.377-1.276,1.04-1.365l25.715-3.446   c0.656-0.093,1.271,0.378,1.359,1.044c0.088,0.666-0.377,1.276-1.04,1.365l-25.715,3.446   C128.188,296.956,128.133,296.96,128.08,296.96z"/>
</g>
<g>
	<path fill="#1B236D" d="M128.08,293.124c-0.588,0-1.104-0.432-1.195-1.033c-0.1-0.663,0.355-1.283,1.016-1.383l24.979-3.793   c0.654-0.099,1.278,0.356,1.378,1.02c0.1,0.663-0.355,1.283-1.016,1.383l-24.979,3.793   C128.201,293.12,128.14,293.124,128.08,293.124z"/>
</g>
<g>
	<path fill="#1B236D" d="M128.08,289.287c-0.58,0-1.092-0.42-1.192-1.014c-0.112-0.662,0.333-1.288,0.992-1.4l24.489-4.141   c0.657-0.112,1.283,0.335,1.394,0.996c0.112,0.662-0.333,1.288-0.992,1.4l-24.489,4.141   C128.215,289.282,128.146,289.287,128.08,289.287z"/>
</g>
<g>
	<path fill="#1B236D" d="M128.08,285.451c-0.592,0-1.108-0.435-1.196-1.041c-0.097-0.664,0.362-1.281,1.024-1.377l25.715-3.75   c0.662-0.092,1.276,0.363,1.371,1.028c0.097,0.664-0.362,1.281-1.024,1.377l-25.715,3.75   C128.196,285.447,128.138,285.451,128.08,285.451z"/>
</g>
<g>
	<path fill="#1B236D" d="M154.829,312.352h-26.748c-0.669,0-1.211-0.544-1.211-1.215s0.542-1.215,1.211-1.215h26.748   c0.669,0,1.211,0.544,1.211,1.215S155.498,312.352,154.829,312.352z"/>
</g>
<g>
	<path fill="#1B236D" d="M128.08,308.515c-0.643,0-1.178-0.508-1.208-1.16c-0.03-0.67,0.486-1.238,1.154-1.27l26.696-1.219   c0.679-0.013,1.233,0.488,1.265,1.159c0.03,0.67-0.486,1.238-1.154,1.27l-26.696,1.219   C128.117,308.515,128.098,308.515,128.08,308.515z"/>
</g>
<g>
	<path fill="#1B236D" d="M128.08,304.679c-0.626,0-1.155-0.483-1.205-1.121c-0.052-0.669,0.446-1.254,1.112-1.306l26.205-2.058   c0.669-0.055,1.249,0.448,1.301,1.116c0.052,0.669-0.446,1.254-1.112,1.306l-26.205,2.058   C128.144,304.678,128.112,304.679,128.08,304.679z"/>
</g>
<g>
	<path fill="#1B236D" d="M128.08,300.842c-0.609,0-1.133-0.46-1.201-1.082c-0.073-0.667,0.406-1.268,1.07-1.341l26.205-2.898   c0.656-0.078,1.263,0.408,1.335,1.075c0.073,0.667-0.406,1.268-1.07,1.341l-26.205,2.898   C128.169,300.84,128.125,300.842,128.08,300.842z"/>
</g>
<g>
	<path fill="#1B236D" d="M136.76,117.887c-0.03,0-0.062-0.001-0.092-0.003l-26.793-2.049c-0.667-0.05-1.166-0.634-1.115-1.304   c0.051-0.669,0.631-1.175,1.298-1.119l26.793,2.049c0.667,0.05,1.166,0.634,1.115,1.304   C137.917,117.402,137.388,117.887,136.76,117.887z"/>
</g>
<g>
	<path fill="#1B236D" d="M136.417,114.065c-0.029,0-0.06-0.001-0.09-0.003l-26.789-1.97c-0.667-0.049-1.167-0.631-1.118-1.3   c0.049-0.669,0.621-1.17,1.295-1.123l26.789,1.97c0.667,0.049,1.167,0.631,1.118,1.3   C137.576,113.578,137.044,114.065,136.417,114.065z"/>
</g>
<polygon fill="#1B236D" points="193.632,145.1 220.065,214.746 202.868,221.326 176.435,151.68 "/>
<polygon fill="#1B236D" points="37.136,86.483 79.269,147.842 64.118,158.329 21.986,96.97 "/>
<radialGradient id="SVGID_7_-i1" cx="238.7314" cy="96.9075" r="21.7843" gradientTransform="matrix(0.996 -0.0903 -0.0899 -1 -46.0929 267.5574)" gradientUnits="userSpaceOnUse">
	<stop offset="0" style="stop-color:#FF4945"/>
	<stop offset="1" style="stop-color:#F92424"/>
</radialGradient>
<ellipse fill="url(#SVGID_7_-i1)" cx="182.972" cy="149.102" rx="21.784" ry="21.871"/>
<radialGradient id="SVGID_8_-i1" cx="134.5117" cy="96.9108" r="21.7843" gradientTransform="matrix(0.996 -0.0903 -0.0899 -1 -46.0929 267.5574)" gradientUnits="userSpaceOnUse">
	<stop offset="0" style="stop-color:#FF4945"/>
	<stop offset="1" style="stop-color:#F92424"/>
</radialGradient>
<ellipse fill="url(#SVGID_8_-i1)" cx="79.168" cy="158.505" rx="21.784" ry="21.871"/>
<g>
	<path fill="#1B236D" d="M278.378,233.963c-0.405,0-0.801-0.205-1.03-0.577c-0.351-0.57-0.175-1.319,0.393-1.672l13.812-8.572   c0.567-0.353,1.314-0.178,1.665,0.395c0.351,0.57,0.175,1.319-0.393,1.672l-13.812,8.572   C278.815,233.905,278.595,233.963,278.378,233.963z"/>
</g>
<g>
	<path fill="#1B236D" d="M277.358,238.752c-0.523,0-1.006-0.344-1.161-0.875c-0.187-0.644,0.181-1.319,0.823-1.506l21.43-6.275   c0.644-0.185,1.314,0.182,1.501,0.826c0.187,0.644-0.181,1.319-0.823,1.506l-21.43,6.275   C277.584,238.737,277.47,238.752,277.358,238.752z"/>
</g>
<g>
	<path fill="#1B236D" d="M296.737,245.678c-0.082,0-0.167-0.009-0.251-0.026l-19.91-4.228c-0.655-0.138-1.072-0.784-0.934-1.44   c0.139-0.657,0.788-1.074,1.434-0.937l19.91,4.228c0.655,0.138,1.072,0.784,0.934,1.44   C297.799,245.286,297.296,245.678,296.737,245.678z"/>
</g>
<g>
	<path fill="#1B236D" d="M291.321,257.555c-0.29,0-0.58-0.104-0.811-0.314l-15.896-14.422c-0.496-0.45-0.535-1.219-0.087-1.717   c0.448-0.498,1.215-0.536,1.709-0.087l15.896,14.422c0.496,0.45,0.535,1.219,0.087,1.717   C291.982,257.419,291.651,257.555,291.321,257.555z"/>
</g>
<g>
	<path fill="#1B236D" d="M263.559,264.138c-0.119,0-0.242-0.019-0.362-0.056c-0.638-0.202-0.993-0.883-0.793-1.523l6.103-19.547   c0.201-0.64,0.882-0.996,1.516-0.796c0.638,0.202,0.993,0.883,0.793,1.523l-6.103,19.547   C264.551,263.804,264.074,264.138,263.559,264.138z"/>
</g>
<g>
	<path fill="#1B236D" d="M28.075,24.312c-0.258,0-0.52-0.083-0.74-0.254c-0.529-0.411-0.625-1.174-0.216-1.705L38.76,7.261   c0.41-0.53,1.17-0.627,1.698-0.217c0.529,0.411,0.625,1.174,0.216,1.705L29.033,23.841C28.794,24.151,28.436,24.312,28.075,24.312z   "/>
</g>
<g>
	<path fill="#1B236D" d="M24.693,21.38c-0.603,0-1.125-0.452-1.2-1.068L21.19,1.363c-0.081-0.666,0.391-1.272,1.055-1.353   c0.656-0.086,1.267,0.392,1.347,1.06l2.303,18.949c0.081,0.666-0.391,1.272-1.055,1.353C24.79,21.377,24.741,21.38,24.693,21.38z"/>
</g>
<g>
	<path fill="#1B236D" d="M18.883,22.639c-0.492,0-0.953-0.303-1.135-0.794L10.925,3.361c-0.232-0.629,0.088-1.329,0.714-1.562   c0.623-0.234,1.322,0.088,1.556,0.717l6.823,18.485c0.232,0.629-0.088,1.329-0.714,1.562   C19.166,22.614,19.023,22.639,18.883,22.639z"/>
</g>
<g>
	<path fill="#1B236D" d="M13.65,24.704c-0.339,0-0.674-0.141-0.913-0.417L0.753,10.467C0.314,9.961,0.367,9.194,0.871,8.752   c0.504-0.44,1.267-0.388,1.708,0.119l11.984,13.82c0.439,0.506,0.385,1.273-0.118,1.715C14.215,24.605,13.932,24.704,13.65,24.704z   "/>
</g>
<g>
	<path fill="#1B236D" d="M15.101,32.689c-0.195,0-0.394-0.047-0.578-0.148L0.632,24.95c-0.587-0.32-0.804-1.058-0.484-1.648   c0.319-0.59,1.055-0.809,1.642-0.486l13.891,7.591c0.587,0.32,0.804,1.058,0.484,1.648C15.946,32.459,15.53,32.689,15.101,32.689z"/>
</g>
<linearGradient id="SVGID_9_-i1" gradientUnits="userSpaceOnUse" x1="246.7136" y1="19.9983" x2="279.3916" y2="19.9983" gradientTransform="matrix(0.996 -0.0899 -0.0899 -0.996 -46.0929 266.5071)">
	<stop offset="0" style="stop-color:#EFEFEF"/>
	<stop offset="0.5538" style="stop-color:#D7D8D9"/>
</linearGradient>
<ellipse fill="url(#SVGID_9_-i1)" cx="214.11" cy="222.94" rx="16.338" ry="16.404"/>
<linearGradient id="SVGID_10_-i1" gradientUnits="userSpaceOnUse" x1="-229.8552" y1="708.2002" x2="-197.1613" y2="708.2002" gradientTransform="matrix(0.9626 0.271 0.271 -0.9626 45.1083 830.3247)">
	<stop offset="0" style="stop-color:#EFEFEF"/>
	<stop offset="0.5538" style="stop-color:#D7D8D9"/>
</linearGradient>
<ellipse fill="url(#SVGID_10_-i1)" cx="31.508" cy="90.75" rx="16.338" ry="16.404"/>
<path fill="#FFFFFF" d="M108.931,210.477c-0.354-3.942,2.542-7.426,6.467-7.782c3.806-0.344,7.175,2.381,7.701,6.139l15.638-18.815  c-6.122-7.057-15.408-11.173-25.4-10.267c-10.254,0.929-18.836,6.924-23.528,15.301l19.217,16.101  C108.985,210.931,108.952,210.707,108.931,210.477z"/>
<ellipse fill="#1B236D" cx="117.324" cy="214.414" rx="4.343" ry="4.36"/>
<g>
	<polygon fill="#1B236D" points="100.55,192.644 117.641,212.986 116.811,213.689 99.721,193.347  "/>
</g>
<linearGradient id="SVGID_11_-i1" gradientUnits="userSpaceOnUse" x1="343.3999" y1="-873.209" x2="359.5913" y2="-873.209" gradientTransform="matrix(0.7995 -0.6006 -0.6006 -0.7995 -532.1398 -250.1776)">
	<stop offset="0" style="stop-color:#92C4FE"/>
	<stop offset="1" style="stop-color:#5BABF2"/>
</linearGradient>
<polygon fill="url(#SVGID_11_-i1)" points="284.662,238.43 271.76,248.161 262.067,235.208 274.969,225.477 "/>
<linearGradient id="SVGID_12_-i1" gradientUnits="userSpaceOnUse" x1="269.6617" y1="74.4896" x2="285.8208" y2="74.4896" gradientTransform="matrix(0.9611 -0.2762 -0.2762 -0.9611 -224.8361 174.3652)">
	<stop offset="0" style="stop-color:#92C4FE"/>
	<stop offset="1" style="stop-color:#5BABF2"/>
</linearGradient>
<polygon fill="url(#SVGID_12_-i1)" points="31.51,31.609 16.001,36.084 11.543,20.513 27.053,16.038 "/>
<polygon fill="#FFFFFF" points="111.182,154.051 122.717,153.006 123.758,164.587 112.223,165.632 "/>
<polygon fill="#FFFFFF" points="128.483,152.483 140.018,151.438 141.059,163.019 129.524,164.064 "/>
<polygon fill="#FFFFFF" points="145.784,150.915 157.319,149.87 158.36,161.451 146.825,162.496 "/>
<polygon fill="#5BABF2" points="171.864,214.94 150.958,216.835 147.38,177.027 168.285,175.132 "/>
<ellipse fill="#F92424" cx="32.4" cy="90.248" rx="5.067" ry="5.087"/>
<ellipse fill="#F92424" cx="214.661" cy="222.013" rx="5.067" ry="5.087"/>
<ellipse fill="#F92424" cx="184.699" cy="147.385" rx="5.067" ry="5.087"/>
<ellipse fill="#F92424" cx="77.358" cy="157.84" rx="5.067" ry="5.087"/>

        </g>
    </g>
</g>

<!-- ITEM 2 -->
<g>
    <defs>
        
        <clipPath id="clip-path-id-viewbox-item-2">
            <rect x="-343.543" y="748.354" width="103.828" height="48.248"/>
        </clipPath>
    </defs>
    <g transform="translate(500.0 530.0) rotate(0.0 270.0 124.5) scale(5.200909195977963 5.160835682308075)">
        <g clip-path="url(#clip-path-id-viewbox-item-2)" transform="translate(343.543 -748.354)">

<rect x="-286.495" y="789.769" fill="#89B3F4" width="46.78" height="6.833"/>
<polygon fill="#A1C3FC" points="-343.543,748.354 -285.409,748.354 -272.006,796.602 -330.14,796.602 "/>
<circle fill="#89B3F4" cx="-309.512" cy="773.308" r="4.993"/>

        </g>
    </g>
</g>

              </svg>