<?xml version="1.0" encoding="UTF-8"?><svg version="1.1" id="Layer_1" xmlns="http://www.w3.org/2000/svg" xmlns:xlink="http://www.w3.org/1999/xlink" x="0px" y="0px" width="300px" height="253px" viewBox="0 0 300 253" enable-background="new 0 0 300 253" xml:space="preserve">
<polygon fill="#A1C3FC" points="15.652,104.241 0,97.009 7.225,81.34 22.877,88.573 "/>
<polygon fill="#E94A47" points="134.833,123.971 92.215,104.277 111.888,61.615 154.507,81.309 "/>
<polygon fill="#1D72D8" points="280.334,62.356 237.716,42.663 257.389,0 300.008,19.694 "/>
<g>
	<path fill="#23286B" d="M208.486,81.834c-0.612,0-1.216-0.306-1.574-0.863c-27.21-42.667-84.119-63.428-132.379-48.307
		c-0.989,0.31-2.03-0.239-2.336-1.225c-0.31-0.986,0.239-2.032,1.224-2.338c49.809-15.615,108.553,5.823,136.644,49.86
		c0.552,0.87,0.298,2.024-0.567,2.577C209.18,81.74,208.833,81.834,208.486,81.834z"/>
</g>
<g>
	<path fill="#23286B" d="M12.464,253c-0.041,0-0.078,0-0.119-0.004c-1.026-0.067-1.81-0.952-1.742-1.979
		c2.38-37.532,36.079-71.025,73.586-73.139c1.048-0.138,1.91,0.732,1.966,1.759c0.06,1.027-0.728,1.912-1.757,1.968
		c-35.717,2.017-67.807,33.909-70.075,69.644C14.259,252.242,13.438,253,12.464,253z"/>
</g>
</svg>