<?xml version="1.0" encoding="UTF-8"?><svg version="1.1" id="Layer_1" xmlns="http://www.w3.org/2000/svg" xmlns:xlink="http://www.w3.org/1999/xlink" x="0px" y="0px" width="220px" height="350px" viewBox="0 0 220 350" enable-background="new 0 0 220 350" xml:space="preserve">
<linearGradient id="SVGID_1_" gradientUnits="userSpaceOnUse" x1="-472.5338" y1="772.5233" x2="-349.6127" y2="772.5233" gradientTransform="matrix(0.8612 0.5083 0.5083 -0.8612 102.0323 1003.1466)">
	<stop offset="0" style="stop-color:#92C4FE"/>
	<stop offset="1" style="stop-color:#5BABF2"/>
</linearGradient>
<path fill="url(#SVGID_1_)" d="M95.307,205.795c14.729,8.693,25.193,21.497,30.353,35.318c20.508-13.6,41.559-36.241,58.482-64.914
	c34.505-58.466,9.547-137.102,9.547-137.102s-80.903,16.157-115.408,74.624c-16.923,28.674-26.569,58.045-28.563,82.573
	C64.311,194.13,80.578,197.102,95.307,205.795z"/>
<path fill="#EFEFEF" d="M159.06,129.144c3.903,2.303,7.07,5.374,9.427,8.907c0.907-10.802-4.274-21.683-14.235-27.562
	c-13.863-8.181-31.733-3.576-39.916,10.287c-5.879,9.961-5.155,21.99,0.86,31.009c0.356-4.232,1.645-8.451,3.948-12.354
	C127.326,125.568,145.198,120.963,159.06,129.144z"/>
<path fill="#FFFFFF" d="M164.539,150.405c2.303-3.903,3.593-8.122,3.948-12.354c-2.356-3.533-5.525-6.604-9.427-8.907
	c-13.863-8.181-31.735-3.576-39.916,10.287c-2.303,3.903-3.593,8.122-3.948,12.354c2.356,3.533,5.525,6.604,9.427,8.907
	C138.487,168.874,156.358,164.268,164.539,150.405z"/>
<path fill="#FF4945" d="M170.241,177.313l-48.468,59.685l19.214,42.241C167.273,241.909,176.212,208.098,170.241,177.313z"/>
<path fill="#FF4945" d="M86.869,128.108l-28.824,71.278l-46.267,3.596C31.754,161.929,57.034,137.76,86.869,128.108z"/>
<g>
	<path fill="#FF4945" d="M190.566,46.754c-0.269,0-0.54-0.069-0.788-0.215c-0.737-0.435-0.982-1.386-0.547-2.123l25.765-43.654
		c0.437-0.737,1.39-0.981,2.124-0.548c0.737,0.435,0.982,1.386,0.547,2.123l-25.765,43.654
		C191.611,46.482,191.095,46.754,190.566,46.754z"/>
</g>
<g>
	<path fill="#5BABF2" d="M81.623,328.212c-0.048,0-0.097-0.007-0.146-0.022c-0.274-0.081-0.431-0.367-0.349-0.641
		c6.579-22.379,11.33-43.057,15.404-67.046c0.048-0.28,0.314-0.469,0.596-0.423c0.281,0.049,0.471,0.315,0.424,0.596
		c-4.081,24.031-8.841,44.745-15.432,67.163C82.053,328.065,81.848,328.212,81.623,328.212z"/>
</g>
<g>
	<path fill="#5BABF2" d="M0.517,280.344c-0.131,0-0.263-0.05-0.364-0.15c-0.203-0.201-0.205-0.528-0.004-0.731
		c16.444-16.608,32.278-30.787,51.34-45.97c0.223-0.181,0.549-0.142,0.727,0.082c0.178,0.223,0.141,0.548-0.083,0.726
		c-19.028,15.159-34.834,29.312-51.249,45.89C0.783,280.292,0.65,280.344,0.517,280.344z"/>
</g>
<rect x="71.04" y="336.231" transform="matrix(-0.3479 -0.9375 0.9375 -0.3479 -216.9981 533.5798)" fill="#FF4945" width="12.05" height="12.05"/>
<rect x="4.291" y="329.717" transform="matrix(0.7429 -0.6694 0.6694 0.7429 -222.0938 93.2242)" fill="#1B236D" width="12.05" height="12.05"/>
<rect x="9.453" y="247.158" transform="matrix(-0.3479 -0.9375 0.9375 -0.3479 -217.2908 351.3933)" fill="#5BABF2" width="8.212" height="8.212"/>
<g>
	<path fill="#5BABF2" d="M20.482,323.681c-0.089,0-0.18-0.023-0.261-0.071c-0.246-0.146-0.328-0.462-0.183-0.708l36.748-62.267
		c0.146-0.246,0.463-0.326,0.708-0.183c0.246,0.146,0.328,0.462,0.183,0.708l-36.748,62.267
		C20.83,323.59,20.657,323.681,20.482,323.681z"/>
</g>
<g>
	<path fill="#5BABF2" d="M61.01,311.706c-0.061,0-0.122-0.01-0.181-0.033c-0.268-0.1-0.403-0.398-0.303-0.666l6.347-16.94
		c0.1-0.267,0.399-0.405,0.666-0.302c0.268,0.1,0.403,0.398,0.303,0.666l-6.347,16.94C61.416,311.577,61.219,311.706,61.01,311.706z
		"/>
</g>
<g>
	<path fill="#FF4945" d="M139.41,169.91c-6.107,0-12.128-1.648-17.413-4.768c-7.894-4.659-13.501-12.113-15.788-20.989
		c-2.287-8.875-0.982-18.111,3.677-26.005c6.144-10.411,17.479-16.879,29.58-16.879c6.107,0,12.128,1.648,17.413,4.767
		c16.296,9.617,21.728,30.698,12.112,46.993C162.845,163.443,151.511,169.91,139.41,169.91z M139.466,111.607
		c-8.462,0-16.385,4.52-20.679,11.796c-3.255,5.516-4.167,11.97-2.569,18.173c1.599,6.202,5.517,11.411,11.033,14.667
		c3.695,2.181,7.9,3.333,12.161,3.333c8.462,0,16.386-4.521,20.68-11.797c6.72-11.387,2.923-26.118-8.464-32.838
		C147.931,112.759,143.726,111.607,139.466,111.607z"/>
</g>
<path fill="#5BABF2" d="M133.794,76.781c29.573,17.454,51.031,42.866,62.541,70.729c15.081-52.561-2.645-108.413-2.645-108.413
	s-37.718,7.538-72.63,30.928C125.354,72.061,129.605,74.31,133.794,76.781z"/>
<linearGradient id="SVGID_2_" gradientUnits="userSpaceOnUse" x1="-452.5461" y1="853.5646" x2="-369.6049" y2="853.5646" gradientTransform="matrix(0.8612 0.5083 0.5083 -0.8612 102.0323 1003.1466)">
	<stop offset="0" style="stop-color:#FF4945"/>
	<stop offset="1" style="stop-color:#F92424"/>
</linearGradient>
<path fill="url(#SVGID_2_)" d="M204.07,103.103c0.888-36.806-8.663-66.916-8.663-66.916s-30.975,6.192-62.767,24.759L204.07,103.103
	z"/>
</svg>