<svg width="31" height="30" viewBox="0 0 31 30" fill="none" xmlns="http://www.w3.org/2000/svg">
<path d="M12.4914 12.6849C12.4914 13.2711 12.2586 13.8332 11.8441 14.2477C11.4296 14.6622 10.8674 14.8951 10.2812 14.8951C9.69505 14.8951 9.13288 14.6622 8.71839 14.2477C8.3039 13.8332 8.07104 13.2711 8.07104 12.6849C8.07104 12.0987 8.3039 11.5365 8.71839 11.122C9.13288 10.7075 9.69505 10.4747 10.2812 10.4747C10.8674 10.4747 11.4296 10.7075 11.8441 11.122C12.2586 11.5365 12.4914 12.0987 12.4914 12.6849Z" fill="white"/>
<path d="M6.59766 17.3985C6.59766 16.6264 7.22388 16.0002 7.99597 16.0002H12.5652C13.3372 16.0002 13.9635 16.6264 13.9635 17.3985C13.9635 18.6465 13.1133 19.7339 11.9021 20.0374L11.8152 20.0595C10.8073 20.31 9.75233 20.31 8.74448 20.0595L8.65608 20.0374C8.06791 19.8899 7.54589 19.5501 7.17294 19.072C6.8 18.5939 6.59751 18.0048 6.59766 17.3985Z" fill="white"/>
<path d="M17.6486 11.9481C17.4532 11.9481 17.2658 12.0258 17.1276 12.1639C16.9895 12.3021 16.9119 12.4895 16.9119 12.6849C16.9119 12.8803 16.9895 13.0677 17.1276 13.2058C17.2658 13.344 17.4532 13.4216 17.6486 13.4216H22.069C22.2644 13.4216 22.4517 13.344 22.5899 13.2058C22.7281 13.0677 22.8057 12.8803 22.8057 12.6849C22.8057 12.4895 22.7281 12.3021 22.5899 12.1639C22.4517 12.0258 22.2644 11.9481 22.069 11.9481H17.6486Z" fill="white"/>
<path d="M17.6486 16.3685C17.4532 16.3685 17.2658 16.4461 17.1276 16.5843C16.9895 16.7225 16.9119 16.9099 16.9119 17.1052C16.9119 17.3006 16.9895 17.488 17.1276 17.6262C17.2658 17.7644 17.4532 17.842 17.6486 17.842H22.069C22.2644 17.842 22.4517 17.7644 22.5899 17.6262C22.7281 17.488 22.8057 17.3006 22.8057 17.1052C22.8057 16.9099 22.7281 16.7225 22.5899 16.5843C22.4517 16.4461 22.2644 16.3685 22.069 16.3685H17.6486Z" fill="white"/>
<path d="M3.65063 8.63287C3.65063 7.20951 4.80582 6.05432 6.22918 6.05432H24.6474C26.0708 6.05432 27.2259 7.20951 27.2259 8.63287V21.1573C27.2259 21.8411 26.9543 22.497 26.4707 22.9806C25.9871 23.4641 25.3313 23.7358 24.6474 23.7358H6.22918C5.54531 23.7358 4.88945 23.4641 4.40587 22.9806C3.9223 22.497 3.65063 21.8411 3.65063 21.1573V8.63287ZM6.22918 7.52778C5.9361 7.52778 5.65501 7.64421 5.44777 7.85145C5.24052 8.0587 5.12409 8.33978 5.12409 8.63287V21.1573C5.12409 21.7673 5.61917 22.2623 6.22918 22.2623H24.6474C24.9405 22.2623 25.2216 22.1459 25.4288 21.9387C25.6361 21.7314 25.7525 21.4503 25.7525 21.1573V8.63287C25.7525 8.33978 25.6361 8.0587 25.4288 7.85145C25.2216 7.64421 24.9405 7.52778 24.6474 7.52778H6.22918Z" fill="white"/>
</svg>
