<svg width="32" height="26" viewBox="0 0 32 26" fill="none" xmlns="http://www.w3.org/2000/svg">
<g filter="url(#filter0_d)">
<path d="M28 0H4C3.46957 0 2.96086 0.210714 2.58579 0.585786C2.21071 0.960859 2 1.46957 2 2V18C2 18.5304 2.21071 19.0391 2.58579 19.4142C2.96086 19.7893 3.46957 20 4 20H28C28.5304 20 29.0391 19.7893 29.4142 19.4142C29.7893 19.0391 30 18.5304 30 18V2C30 1.46957 29.7893 0.960859 29.4142 0.585786C29.0391 0.210714 28.5304 0 28 0V0ZM25.8 2L16 8.78L6.2 2H25.8ZM4 18V2.91L15.43 10.82C15.5974 10.9361 15.7963 10.9984 16 10.9984C16.2037 10.9984 16.4026 10.9361 16.57 10.82L28 2.91V18H4Z" fill="black"/>
</g>
<defs>
<filter id="filter0_d" x="-2" y="0" width="36" height="28" filterUnits="userSpaceOnUse" color-interpolation-filters="sRGB">
<feFlood flood-opacity="0" result="BackgroundImageFix"/>
<feColorMatrix in="SourceAlpha" type="matrix" values="0 0 0 0 0 0 0 0 0 0 0 0 0 0 0 0 0 0 127 0"/>
<feOffset dy="4"/>
<feGaussianBlur stdDeviation="2"/>
<feColorMatrix type="matrix" values="0 0 0 0 0 0 0 0 0 0 0 0 0 0 0 0 0 0 0.25 0"/>
<feBlend mode="normal" in2="BackgroundImageFix" result="effect1_dropShadow"/>
<feBlend mode="normal" in="SourceGraphic" in2="effect1_dropShadow" result="shape"/>
</filter>
</defs>
</svg>
