<svg width="30" height="30" viewBox="0 0 30 30" fill="none" xmlns="http://www.w3.org/2000/svg">
<g clip-path="url(#clip0)">
<path fill-rule="evenodd" clip-rule="evenodd" d="M14.6067 0C6.53652 0 0 6.53652 0 14.6067C0 21.0702 4.18118 26.5295 9.98736 28.4649C10.7177 28.5927 10.9916 28.1545 10.9916 27.7711C10.9916 27.4242 10.9733 26.2739 10.9733 25.0506C7.30337 25.7261 6.35393 24.1559 6.0618 23.3343C5.89747 22.9143 5.18539 21.618 4.56461 21.2711C4.05337 20.9972 3.32303 20.3216 4.54635 20.3034C5.69663 20.2851 6.51826 21.3624 6.79214 21.8006C8.10674 24.0098 10.2065 23.389 11.0463 23.0056C11.1742 22.0562 11.5576 21.4171 11.9775 21.052C8.72753 20.6868 5.33146 19.427 5.33146 13.8399C5.33146 12.2514 5.89747 10.9368 6.82865 9.91433C6.68258 9.54916 6.17135 8.05197 6.97472 6.04354C6.97472 6.04354 8.19803 5.66011 10.9916 7.54073C12.1601 7.21208 13.4017 7.04775 14.6433 7.04775C15.8848 7.04775 17.1264 7.21208 18.2949 7.54073C21.0885 5.64185 22.3118 6.04354 22.3118 6.04354C23.1152 8.05197 22.6039 9.54916 22.4579 9.91433C23.389 10.9368 23.9551 12.2331 23.9551 13.8399C23.9551 19.4452 20.5407 20.6868 17.2907 21.052C17.8202 21.5084 18.2767 22.3848 18.2767 23.7542C18.2767 25.7079 18.2584 27.2781 18.2584 27.7711C18.2584 28.1545 18.5323 28.611 19.2626 28.4649C22.1623 27.4859 24.682 25.6223 26.467 23.1363C28.2521 20.6503 29.2126 17.6672 29.2135 14.6067C29.2135 6.53652 22.677 0 14.6067 0Z" fill="black"/>
</g>
<defs>
<clipPath id="clip0">
<rect width="29.2135" height="29.2135" fill="white"/>
</clipPath>
</defs>
</svg>
