<svg width="50" height="51" viewBox="0 0 50 51" fill="none" xmlns="http://www.w3.org/2000/svg">
<path fill-rule="evenodd" clip-rule="evenodd" d="M2.08334 6.33869C2.08334 5.32314 2.48677 4.34917 3.20488 3.63106C3.92299 2.91296 4.89695 2.50953 5.91251 2.50953H44.0833C44.5866 2.5087 45.0851 2.60716 45.5503 2.79925C46.0155 2.99134 46.4382 3.2733 46.7943 3.62898C47.1503 3.98466 47.4328 4.40708 47.6254 4.87205C47.818 5.33702 47.917 5.83541 47.9167 6.33869V44.5095C47.9172 45.0129 47.8185 45.5115 47.6262 45.9767C47.4339 46.4418 47.1517 46.8646 46.7959 47.2206C46.44 47.5766 46.0175 47.859 45.5524 48.0516C45.0873 48.2442 44.5888 48.3431 44.0854 48.3429H5.91251C5.40948 48.3429 4.91138 48.2437 4.44667 48.0512C3.98196 47.8586 3.55974 47.5764 3.20414 47.2206C2.84855 46.8648 2.56654 46.4424 2.37422 45.9776C2.18191 45.5128 2.08307 45.0146 2.08334 44.5116V6.33869ZM20.225 19.9845H26.4313V23.1012C27.3271 21.3095 29.6188 19.697 33.0625 19.697C39.6646 19.697 41.2292 23.2658 41.2292 29.8137V41.9429H34.5479V31.3054C34.5479 27.5762 33.6521 25.472 31.3771 25.472C28.2208 25.472 26.9083 27.7408 26.9083 31.3054V41.9429H20.225V19.9845ZM8.76668 41.6574H15.45V19.697H8.76668V41.6554V41.6574ZM16.4063 12.5345C16.4189 13.1068 16.317 13.6757 16.1068 14.2081C15.8965 14.7404 15.582 15.2254 15.1817 15.6346C14.7815 16.0438 14.3035 16.3688 13.776 16.5908C13.2484 16.8127 12.6818 16.9271 12.1094 16.9271C11.537 16.9271 10.9704 16.8127 10.4428 16.5908C9.91522 16.3688 9.43728 16.0438 9.03703 15.6346C8.63678 15.2254 8.32229 14.7404 8.11201 14.2081C7.90173 13.6757 7.79991 13.1068 7.81251 12.5345C7.83724 11.4113 8.30081 10.3424 9.10394 9.55679C9.90706 8.77115 10.9859 8.33123 12.1094 8.33123C13.2329 8.33123 14.3117 8.77115 15.1148 9.55679C15.918 10.3424 16.3815 11.4113 16.4063 12.5345Z" fill="black"/>
</svg>
