<svg width="23" height="23" viewBox="0 0 23 23" fill="none" xmlns="http://www.w3.org/2000/svg">
<path fill-rule="evenodd" clip-rule="evenodd" d="M12.735 0.694L14.178 0L22.207 6.328V7.716L14.178 13.788L12.735 13.094V10.318H12.145C8.08497 10.298 5.43497 10.422 1.53497 15.481L0.000969575 14.988C-0.013348 14.2274 0.0778535 13.4685 0.271969 12.733C0.701937 10.0648 2.09692 7.64738 4.19197 5.94C6.30505 4.21659 8.9684 3.31236 11.694 3.393H12.734V0.693L12.735 0.694ZM14.539 8.611V11.387L20.215 7.106L14.567 2.561V5.225H11.707C10.4326 5.16292 9.15908 5.36376 7.96566 5.81501C6.77224 6.26626 5.68445 6.95828 4.76997 7.848C3.66236 9.01838 2.8406 10.4292 2.36897 11.97C5.71997 8.757 8.55897 8.611 12.167 8.611H14.54H14.539ZM6.89197 14.507C7.36217 14.1795 7.89296 13.949 8.45329 13.8291C9.01363 13.7091 9.59225 13.7021 10.1553 13.8085C10.7184 13.9148 11.2546 14.1324 11.7326 14.4484C12.2106 14.7645 12.6207 15.1727 12.9391 15.6492C13.2574 16.1256 13.4776 16.6608 13.5866 17.2233C13.6957 17.7859 13.6915 18.3645 13.5742 18.9254C13.457 19.4863 13.2291 20.0182 12.9038 20.49C12.5786 20.9618 12.1625 21.3639 11.68 21.673C10.7296 22.2817 9.57833 22.4933 8.47359 22.2624C7.36884 22.0315 6.39875 21.3765 5.77174 20.4381C5.14473 19.4996 4.91083 18.3527 5.12029 17.2437C5.32976 16.1347 5.96587 15.1521 6.89197 14.507V14.507ZM7.84697 20.235C8.12939 20.4263 8.44685 20.5599 8.78108 20.6281C9.11531 20.6962 9.45972 20.6977 9.79451 20.6323C10.1293 20.5669 10.4479 20.4359 10.7319 20.247C11.0159 20.0581 11.2597 19.8148 11.4494 19.5313C11.6391 19.2478 11.7708 18.9296 11.8371 18.5949C11.9033 18.2603 11.9028 17.9159 11.8354 17.5815C11.7681 17.2471 11.6354 16.9293 11.4448 16.6464C11.2542 16.3635 11.0096 16.121 10.725 15.933C10.1544 15.5561 9.45793 15.4202 8.78758 15.5552C8.11723 15.6901 7.52754 16.0849 7.14732 16.6533C6.7671 17.2216 6.62726 17.9173 6.75836 18.5884C6.88945 19.2596 7.28082 19.8515 7.84697 20.235V20.235Z" fill="black"/>
</svg>
