<svg width="37" height="37" viewBox="0 0 37 37" fill="none" xmlns="http://www.w3.org/2000/svg">
<g clip-path="url(#clip0)">
<path d="M0 0H36.1193V36.1193H0V0Z" fill="#F7DF1E"/>
<path d="M9.49709 30.1839L12.2611 28.5111C12.7944 29.4565 13.2795 30.2565 14.443 30.2565C15.5584 30.2565 16.2617 29.8203 16.2617 28.1232V16.5823H19.6559V28.1712C19.6559 31.6868 17.5951 33.287 14.5885 33.287C11.8732 33.287 10.2971 31.8808 9.49695 30.1836" fill="black"/>
<path d="M21.4997 29.8201L24.2633 28.2199C24.9909 29.4081 25.9365 30.2809 27.6093 30.2809C29.0159 30.2809 29.9126 29.5777 29.9126 28.6078C29.9126 27.4441 28.9913 27.0318 27.4396 26.3532L26.5912 25.9892C24.1423 24.9469 22.5179 23.6376 22.5179 20.8736C22.5179 18.3278 24.4575 16.3881 27.4883 16.3881C29.6461 16.3881 31.1978 17.1398 32.313 19.1036L29.6701 20.801C29.0881 19.7584 28.458 19.3463 27.4881 19.3463C26.494 19.3463 25.8636 19.9767 25.8636 20.801C25.8636 21.8192 26.494 22.2316 27.9486 22.862L28.7972 23.2256C31.6825 24.4623 33.3069 25.7229 33.3069 28.5594C33.3069 31.6146 30.9066 33.2874 27.682 33.2874C24.5301 33.2874 22.4935 31.7842 21.4995 29.8202" fill="black"/>
</g>
<defs>
<clipPath id="clip0">
<rect width="36.1193" height="36.1193" fill="white"/>
</clipPath>
</defs>
</svg>
