<svg width="98" height="28" viewBox="0 0 98 28" fill="none" xmlns="http://www.w3.org/2000/svg">
<g opacity="0.62" clip-path="url(#clip0)">
<path fill-rule="evenodd" clip-rule="evenodd" d="M90.4035 11.527C90.3163 11.5445 90.2287 11.738 90.2287 11.8434C90.2112 12.5473 90.1938 14.4122 90.1938 15.6788C90.1938 15.7141 90.2461 15.7844 90.2987 15.7844C90.5611 15.802 91.1911 15.8195 91.7337 15.8195C92.4861 15.8195 92.9237 15.7141 93.1689 15.6087C93.7987 15.2918 94.0962 14.6057 94.0962 13.849C94.0962 12.1428 92.9062 11.4917 91.1386 11.4917C91.0161 11.4742 90.6664 11.4742 90.4035 11.527ZM94.9188 19.391C94.9188 17.6493 93.6412 16.6816 91.3312 16.6816C91.2262 16.6816 90.4911 16.6641 90.3161 16.6991C90.2636 16.7169 90.1938 16.7521 90.1938 16.805C90.1938 18.0539 90.1761 20.0421 90.2287 20.8161C90.2636 21.1503 90.5088 21.6254 90.8063 21.7661C91.1211 21.942 91.8387 21.9771 92.3287 21.9771C93.7112 21.9771 94.9188 21.2031 94.9188 19.391ZM86.8338 10.5595C87.0086 10.5595 87.5335 10.6121 88.8811 10.6121C90.1587 10.6121 91.1737 10.577 92.4162 10.577C93.9386 10.577 96.0387 11.1222 96.0387 13.4094C96.0387 14.5353 95.2511 15.4327 94.2187 15.8725C94.1664 15.8901 94.1664 15.9251 94.2187 15.9427C95.6886 16.3123 96.9838 17.227 96.9838 18.951C96.9838 20.6401 95.9338 21.7133 94.4112 22.3819C93.4837 22.7864 92.3288 22.9271 91.1562 22.9271C90.2636 22.9271 87.8662 22.8217 86.5362 22.8569C86.3963 22.8039 86.6587 22.1706 86.781 22.0652C87.0962 22.0475 87.341 22.0299 87.6737 21.9243C88.1462 21.8013 88.1986 21.6605 88.2686 20.9393C88.3036 20.3235 88.3037 18.1417 88.3037 16.5937C88.3037 14.465 88.3213 13.0224 88.3037 12.3187C88.2862 11.7735 88.0937 11.5973 87.7087 11.4917C87.411 11.4391 86.9212 11.3685 86.5186 11.3159C86.431 11.2279 86.7285 10.6296 86.8338 10.5595ZM76.7358 21.5022C77.1561 21.8362 77.9785 21.9769 78.7136 21.9769C79.6586 21.9769 80.6035 21.8013 81.5136 20.9741C82.4411 20.13 83.0886 18.8281 83.0886 16.7521C83.0886 14.7639 82.3361 13.1454 80.796 12.1956C79.921 11.6499 78.801 11.4215 77.506 11.4215C77.121 11.4215 76.7535 11.4391 76.5261 11.5445C76.4734 11.5798 76.351 11.738 76.351 11.8259C76.316 12.1778 76.316 14.8871 76.316 16.4706C76.316 18.1067 76.316 20.3938 76.351 20.6577C76.351 20.9217 76.4734 21.3263 76.736 21.5022H76.7358ZM72.7633 10.5593C73.0959 10.5593 74.3733 10.6121 74.9858 10.6121C76.0886 10.6121 76.876 10.5595 78.9584 10.5595C80.7084 10.5595 82.1785 11.0343 83.2285 11.9315C84.5059 13.0399 85.1712 14.5706 85.1712 16.4353C85.1712 19.0919 83.9636 20.6226 82.7559 21.5022C81.5487 22.3994 79.9735 22.9271 77.7335 22.9271C76.5435 22.9271 74.496 22.892 72.7983 22.8743H72.7809C72.6935 22.7161 72.9208 22.1003 73.0608 22.0827C73.5159 22.0299 73.6384 22.0122 73.866 21.9245C74.2333 21.7836 74.3035 21.5901 74.356 20.9393C74.4084 19.7252 74.3909 18.2651 74.3909 16.6113C74.3909 15.4327 74.4084 13.1278 74.3733 12.3889C74.321 11.7733 74.0585 11.6149 73.5334 11.5092C73.2709 11.4566 72.9208 11.3861 72.431 11.3335C72.3608 11.2101 72.6758 10.6649 72.7633 10.5595V10.5593Z" fill="#8E714E"/>
<path fill-rule="evenodd" clip-rule="evenodd" d="M51.5881 22.1882C51.1506 22.1354 50.8356 22.0652 50.4506 21.8893C50.3981 21.854 50.3105 21.6782 50.3105 21.6077C50.2756 20.9919 50.2756 19.2327 50.2756 18.0541C50.2756 17.1039 50.1182 16.2771 49.7156 15.6966C49.243 15.0278 48.5607 14.641 47.6855 14.641C46.9155 14.641 45.8829 15.1687 45.0254 15.9076C45.008 15.9252 44.868 16.0485 44.8854 15.8548C44.8854 15.6613 44.9205 15.2743 44.938 15.0103C44.9556 14.764 44.8155 14.641 44.8155 14.641C44.2555 14.9224 42.6805 15.2919 42.1029 15.3445C41.683 15.4327 41.5779 15.8373 42.0156 15.978H42.0331C42.5053 16.1187 42.8205 16.2771 43.0653 16.4355C43.2403 16.5762 43.2229 16.7697 43.2229 16.9281C43.2403 18.2474 43.2403 20.2707 43.188 21.3791C43.1705 21.8189 43.048 21.9772 42.7328 22.0475L42.7679 22.03C42.5229 22.0828 42.3304 22.1354 42.0329 22.1707C41.9278 22.2763 41.9278 22.8393 42.0329 22.9624C42.2254 22.9624 43.2403 22.9096 44.0806 22.9096C45.2355 22.9096 45.8306 22.9624 46.128 22.9624C46.2505 22.8217 46.2856 22.2938 46.2156 22.1707C45.8829 22.1531 45.6379 22.1181 45.4106 22.0475C45.0956 21.977 45.008 21.8189 44.9903 21.4495C44.9556 20.5168 44.9556 18.5465 44.9556 17.2095C44.9556 16.8401 45.0605 16.6641 45.1654 16.5585C45.568 16.2068 46.2156 15.9604 46.793 15.9604C47.353 15.9604 47.7204 16.1364 48.0005 16.3652C48.3854 16.6816 48.5079 17.1392 48.5605 17.4734C48.6479 18.2299 48.613 19.7253 48.613 21.0272C48.613 21.7309 48.5605 21.9068 48.2982 21.9947C48.1755 22.0475 47.8605 22.1181 47.493 22.1529C47.3705 22.2763 47.4056 22.8217 47.493 22.9449C48.0005 22.9449 48.5956 22.8921 49.4706 22.8921C50.5555 22.8921 51.2556 22.9449 51.5357 22.9449C51.623 22.8393 51.658 22.3291 51.5881 22.1882ZM56.4356 15.468C55.5083 15.468 54.9306 16.1892 54.9306 17.315C54.9306 18.4586 55.4381 19.7781 56.8731 19.7781C57.1181 19.7781 57.5733 19.6725 57.783 19.4262C58.1156 19.1097 58.3432 18.4762 58.3432 17.8076C58.3432 16.3474 57.6256 15.4678 56.4356 15.4678V15.468ZM56.3131 23.2438C55.9632 23.2438 55.718 23.3494 55.5606 23.4375C54.8256 23.9122 54.4931 24.3697 54.4931 24.9154C54.4931 25.4253 54.6856 25.8299 55.1057 26.1818C55.6132 26.6216 56.3131 26.8329 57.2056 26.8329C58.9906 26.8329 59.7782 25.8652 59.7782 24.9154C59.7782 24.2466 59.4456 23.8068 58.7633 23.5607C58.2732 23.3494 57.3808 23.2438 56.3131 23.2438ZM56.4356 27.8181C55.3681 27.8181 54.598 27.5893 53.9331 27.0792C53.2855 26.5866 53.0056 25.8476 53.0056 25.3375C53.0056 25.1968 53.0407 24.8096 53.3557 24.4578C53.548 24.2466 53.9682 23.842 54.9657 23.1559C55.0006 23.1384 55.0181 23.1208 55.0181 23.0854C55.0181 23.0503 54.983 23.015 54.9481 22.9977C54.1256 22.681 53.8806 22.1707 53.8105 21.8893V21.854C53.7932 21.7484 53.7581 21.643 53.9157 21.5373C54.0382 21.4495 54.2132 21.3438 54.4055 21.2209C54.7031 21.0447 55.0181 20.8512 55.2106 20.6928C55.2456 20.6577 55.2456 20.6226 55.2456 20.5874C55.2456 20.5521 55.2106 20.5168 55.1755 20.4995C53.9508 20.0947 53.3382 19.1798 53.3382 17.8076C53.3382 16.9104 53.7407 16.1011 54.4581 15.591C54.9481 15.204 56.1732 14.7289 56.9782 14.7289H57.0307C57.8532 14.7464 58.3081 14.9224 58.9556 15.1512C59.3056 15.2743 59.6383 15.3269 60.0934 15.3269C60.7757 15.3269 61.0733 15.1159 61.3181 14.8698C61.3357 14.9048 61.3708 14.9929 61.3883 15.2215C61.4057 15.4503 61.3357 15.7845 61.1607 16.0308C61.0207 16.2243 60.7057 16.3652 60.3907 16.3652H60.3031C59.9881 16.3299 59.848 16.2946 59.848 16.2946L59.7782 16.3299C59.7608 16.3652 59.7782 16.4003 59.7957 16.4531L59.8133 16.4883C59.8482 16.6466 59.9182 17.1215 59.9182 17.2448C59.9182 18.6874 59.3407 19.3205 58.7282 19.7956C58.1331 20.2354 57.4508 20.5168 56.6806 20.5874C56.6632 20.5874 56.5934 20.5874 56.4356 20.6049C56.3482 20.6049 56.2257 20.6226 56.2081 20.6226H56.1906C56.0507 20.6577 55.7008 20.8337 55.7008 21.1326C55.7008 21.3965 55.8582 21.7133 56.6107 21.7661C56.7681 21.7837 56.9255 21.7837 57.1007 21.8014C58.0982 21.8715 59.3407 21.9596 59.9182 22.1531C60.7232 22.4521 61.2307 23.1735 61.2307 24.0355C61.2307 25.3376 60.3033 26.5515 58.7633 27.3078C58.0108 27.6422 57.2581 27.8181 56.4356 27.8181ZM66.4107 15.5559C66.0433 15.5559 65.7107 15.6436 65.4657 15.8196C64.7834 16.2418 64.4333 17.0864 64.4333 18.3178C64.4333 20.6226 65.5882 22.2412 67.2333 22.2412C67.7233 22.2412 68.1083 22.1003 68.4408 21.8189C68.9482 21.3965 69.2109 20.5521 69.2109 19.3733C69.2109 17.0864 68.0732 15.5557 66.4109 15.5557L66.4107 15.5559ZM66.7258 23.0856C63.7508 23.0856 62.6833 20.8865 62.6833 18.8281C62.6833 17.3855 63.2607 16.2771 64.4157 15.4854C65.2383 14.9752 66.2184 14.6938 67.0934 14.6938C69.3683 14.6938 70.9609 16.3299 70.9609 18.6874C70.9609 20.2882 70.3309 21.5549 69.1233 22.3291C68.5458 22.7161 67.5483 23.0856 66.7257 23.0856H66.7258ZM35.5404 15.5557C35.1729 15.5557 34.8404 15.6436 34.5952 15.8196C33.9129 16.2418 33.5628 17.0864 33.5628 18.3178C33.5628 20.6226 34.7177 22.2412 36.3629 22.2412C36.8529 22.2412 37.2379 22.1003 37.5705 21.8189C38.0778 21.3965 38.3404 20.5521 38.3404 19.3733C38.3404 17.0864 37.2204 15.5557 35.5404 15.5557ZM35.8554 23.0856C32.8803 23.0856 31.8128 20.8865 31.8128 18.8281C31.8128 17.3855 32.3903 16.2771 33.5452 15.4854C34.3678 14.9752 35.3479 14.6938 36.2229 14.6938C38.498 14.6938 40.0904 16.3299 40.0904 18.6874C40.0904 20.2882 39.4604 21.5549 38.2528 22.3291C37.6928 22.7161 36.6953 23.0856 35.8554 23.0856ZM15.8526 22.9096C15.8175 22.857 15.7824 22.6986 15.8001 22.5051C15.8001 22.3642 15.8351 22.2763 15.8526 22.2412C16.2201 22.1882 16.4126 22.1354 16.6225 22.0828C16.9726 21.9947 17.1126 21.8014 17.13 21.3616C17.1827 20.306 17.1827 18.3002 17.1651 16.9104V16.8751C17.1651 16.7169 17.1651 16.5232 16.9726 16.3825C16.6925 16.2068 16.3601 16.0485 15.9226 15.925C15.7652 15.8726 15.6601 15.7845 15.6775 15.679C15.6775 15.5734 15.7826 15.4503 16.0102 15.415C16.5876 15.3622 18.0924 14.9929 18.6875 14.7289C18.7226 14.764 18.7751 14.8698 18.7751 15.0105L18.7577 15.2038C18.74 15.3975 18.7226 15.6262 18.7226 15.8548C18.7226 15.9252 18.7928 15.978 18.8625 15.978C18.8976 15.978 18.9327 15.9604 18.9676 15.9427C20.0876 15.0631 21.1026 14.7464 21.6275 14.7464C22.4852 14.7464 23.1503 15.1512 23.6578 15.9955C23.6927 16.0485 23.7277 16.0661 23.7803 16.0661C23.8152 16.0661 23.8675 16.0485 23.8851 16.0132C24.9177 15.2215 25.9503 14.7464 26.6326 14.7464C28.2601 14.7464 29.2227 15.9604 29.2227 18.0188C29.2227 18.5993 29.2227 19.3558 29.2053 20.0421C29.2053 20.6577 29.1878 21.2207 29.1878 21.6254C29.1878 21.7131 29.3102 21.9947 29.5026 22.0475C29.7477 22.1707 30.0803 22.2235 30.5178 22.2938H30.5352C30.5703 22.417 30.5003 22.8743 30.4304 22.9624C30.3253 22.9624 30.1677 22.9624 29.9929 22.9449C29.5499 22.9216 29.1063 22.9099 28.6627 22.9096C27.5778 22.9096 27.0178 22.9271 26.4751 22.9624C26.4403 22.8217 26.4227 22.3994 26.4751 22.2938C26.7902 22.2412 26.9476 22.1882 27.1403 22.1356C27.4904 22.03 27.5778 21.8715 27.5954 21.4142C27.5954 21.08 27.6652 18.2299 27.5602 17.5437C27.4553 16.8401 26.9302 16.0132 25.7751 16.0132C25.3376 16.0132 24.6553 16.1892 23.9902 16.6992C23.9553 16.7345 23.92 16.8223 23.92 16.8751V16.8929C23.9902 17.2622 23.9902 17.6846 23.9902 18.3355V19.479C23.9902 20.2707 23.9726 21.0096 23.9902 21.5724C23.9902 21.9596 24.2178 22.0475 24.4103 22.1181C24.5153 22.1354 24.5851 22.1531 24.6727 22.1707C24.8301 22.2059 24.9877 22.2412 25.2327 22.2938C25.2678 22.3644 25.2678 22.5929 25.2153 22.7864C25.1976 22.8921 25.1626 22.9447 25.1451 22.9624C24.5502 22.9449 23.9377 22.9271 23.0452 22.9271C22.7828 22.9271 22.3276 22.9449 21.9427 22.9449C21.6275 22.9449 21.3301 22.9624 21.1553 22.9624C21.1376 22.9271 21.1026 22.8042 21.1026 22.6105C21.1026 22.4522 21.1377 22.3291 21.1727 22.2938C21.2602 22.2763 21.3301 22.2587 21.4177 22.2587C21.6275 22.2235 21.8027 22.1882 21.9776 22.1531C22.2753 22.0652 22.3802 21.9068 22.3976 21.5198C22.4501 20.6402 22.5027 18.1244 22.3802 17.4909C22.1702 16.4706 21.5928 15.9604 20.6651 15.9604C20.1227 15.9604 19.44 16.2243 18.8802 16.6468C18.7926 16.7169 18.7226 16.8927 18.7226 17.0511V18.0892C18.7226 19.3558 18.7226 20.9393 18.74 21.6254C18.7577 21.8363 18.8275 22.0828 19.2301 22.1707C19.3177 22.1882 19.4576 22.2235 19.6327 22.2412L19.9475 22.2938C19.9827 22.3994 19.9651 22.8217 19.8951 22.9624C19.7201 22.9624 19.5102 22.9449 19.265 22.9449C18.8976 22.9271 18.425 22.9096 17.9001 22.9096C17.2876 22.9096 16.8501 22.9271 16.5 22.9449C16.255 22.9096 16.0625 22.9096 15.8526 22.9096Z" fill="#442D22"/>
<path fill-rule="evenodd" clip-rule="evenodd" d="M6.64738 27.1319L5.92997 26.8854C5.92997 26.8854 6.01758 23.2087 4.7049 22.9448C3.83009 21.9243 4.84523 -20.3338 7.99514 22.8039C7.99514 22.8039 6.91003 23.3492 6.71754 24.2818C6.50742 25.1967 6.64738 27.1319 6.64738 27.1319Z" fill="white"/>
<path fill-rule="evenodd" clip-rule="evenodd" d="M6.64738 27.1319L5.92997 26.8854C5.92997 26.8854 6.01758 23.2087 4.7049 22.9448C3.83009 21.9243 4.84523 -20.3338 7.99514 22.8039C7.99514 22.8039 6.91003 23.3492 6.71754 24.2818C6.50742 25.1967 6.64738 27.1319 6.64738 27.1319Z" fill="#A6A385"/>
<path fill-rule="evenodd" clip-rule="evenodd" d="M7.03262 23.5781C7.03262 23.5781 13.3154 19.4261 11.8451 10.7878C10.4277 4.50741 7.08515 2.44903 6.71763 1.65728C6.31521 1.09431 5.93005 0.109253 5.93005 0.109253L6.1927 17.5787C6.1927 17.5965 5.65015 22.927 7.03281 23.5783" fill="white"/>
<path fill-rule="evenodd" clip-rule="evenodd" d="M7.03262 23.5781C7.03262 23.5781 13.3154 19.4261 11.8451 10.7878C10.4277 4.50741 7.08515 2.44903 6.71763 1.65728C6.31521 1.09431 5.93005 0.109253 5.93005 0.109253L6.1927 17.5787C6.1927 17.5965 5.65015 22.927 7.03281 23.5783" fill="#499D4A"/>
<path fill-rule="evenodd" clip-rule="evenodd" d="M5.5627 23.8077C5.5627 23.8077 -0.335085 19.7613 0.0149899 12.6363C0.347428 5.51122 4.51248 2.01023 5.3175 1.37691C5.84261 0.813939 5.86006 0.602706 5.89514 0.0397339C6.26266 0.831478 6.19269 11.8799 6.24503 13.1816C6.40243 18.1955 5.96512 22.8579 5.5627 23.8077Z" fill="white"/>
<path fill-rule="evenodd" clip-rule="evenodd" d="M5.5627 23.8077C5.5627 23.8077 -0.335085 19.7613 0.0149899 12.6363C0.347428 5.51122 4.51248 2.01023 5.3175 1.37691C5.84261 0.813939 5.86006 0.602706 5.89514 0.0397339C6.26266 0.831478 6.19269 11.8799 6.24503 13.1816C6.40243 18.1955 5.96512 22.8579 5.5627 23.8077Z" fill="#58AA50"/>
</g>
<defs>
<clipPath id="clip0">
<rect width="97.0954" height="27.834" fill="white"/>
</clipPath>
</defs>
</svg>
