<svg width="61" height="37" viewBox="0 0 61 37" fill="none" xmlns="http://www.w3.org/2000/svg">
<path d="M29.7985 36.8377C29.5945 36.8377 29.404 36.7834 29.227 36.6882L27.4174 35.614C27.1452 35.4643 27.2813 35.4099 27.363 35.3828C27.7303 35.2604 27.7984 35.2331 28.1794 35.0157C28.2202 34.9884 28.2747 35.002 28.3155 35.0292L29.7034 35.8587C29.7578 35.8859 29.8258 35.8859 29.8665 35.8587L35.2957 32.7175C35.3501 32.6903 35.3774 32.6358 35.3774 32.5679V26.2991C35.3774 26.231 35.3501 26.1768 35.2957 26.1495L29.8665 23.0219C29.8122 22.9946 29.7441 22.9946 29.7034 23.0219L24.2742 26.1495C24.2199 26.1767 24.1925 26.2447 24.1925 26.299V32.5678C24.1925 32.6223 24.2199 32.6902 24.2742 32.7175L25.7574 33.5741C26.5602 33.9821 27.0636 33.5061 27.0636 33.0302V26.843C27.0636 26.7614 27.1317 26.6798 27.2269 26.6798H27.9208C28.0025 26.6798 28.0841 26.7478 28.0841 26.843V33.0302C28.0841 34.1044 27.499 34.73 26.4785 34.73C26.1656 34.73 25.9207 34.73 25.2267 34.39L23.798 33.5741C23.4442 33.3702 23.2266 32.9894 23.2266 32.5815V26.3127C23.2266 25.9048 23.4442 25.5239 23.798 25.32L29.227 22.1788C29.5673 21.9884 30.03 21.9884 30.3701 22.1788L35.7991 25.32C36.1529 25.5239 36.3707 25.9048 36.3707 26.3127V32.5815C36.3707 32.9894 36.1529 33.3702 35.7991 33.5741L30.3701 36.7153C30.1931 36.797 29.9891 36.8377 29.7986 36.8377H29.7985ZM31.4721 32.5271C29.0911 32.5271 28.6012 31.4392 28.6012 30.5146C28.6012 30.4329 28.6692 30.3514 28.7645 30.3514H29.472C29.5536 30.3514 29.6217 30.4057 29.6217 30.4874C29.7306 31.208 30.0435 31.5616 31.4858 31.5616C32.6287 31.5616 33.1187 31.3032 33.1187 30.6913C33.1187 30.3377 32.9825 30.0795 31.2001 29.9026C29.7169 29.753 28.7917 29.4267 28.7917 28.2437C28.7917 27.1422 29.717 26.4894 31.2681 26.4894C33.0097 26.4894 33.867 27.0878 33.9759 28.3931C33.9759 28.434 33.9623 28.4747 33.9351 28.5156C33.9078 28.5428 33.867 28.5699 33.8262 28.5699H33.1186C33.0506 28.5699 32.9825 28.5156 32.969 28.4476C32.8057 27.6997 32.3839 27.4549 31.2681 27.4549C30.0163 27.4549 29.8665 27.8901 29.8665 28.2164C29.8665 28.6108 30.0435 28.7331 31.7307 28.9507C33.4043 29.1683 34.1936 29.4811 34.1936 30.6505C34.1799 31.8472 33.2003 32.5271 31.4721 32.5271Z" fill="#539E43"/>
<path d="M12.9534 12.3203C12.9534 12.0756 12.8173 11.8443 12.5996 11.7219L6.83036 8.40396C6.735 8.34948 6.62622 8.3223 6.51743 8.30865H6.46292C6.35414 8.30865 6.24524 8.34948 6.15 8.40396L0.380756 11.7219C0.162956 11.8443 0.0269775 12.0755 0.0269775 12.3203L0.0406342 21.2407C0.0406342 21.3631 0.108682 21.4855 0.217465 21.5399C0.326365 21.608 0.462343 21.608 0.557705 21.5399L3.98659 19.5818C4.20427 19.4594 4.34037 19.2282 4.34037 18.9835V14.8088C4.34037 14.564 4.47635 14.3328 4.69415 14.2105L6.15 13.3673C6.2589 13.2993 6.38134 13.272 6.50378 13.272C6.62622 13.272 6.74866 13.2993 6.84402 13.3673L8.29987 14.2105C8.51767 14.3328 8.65364 14.5639 8.65364 14.8088V18.9835C8.65364 19.2282 8.78974 19.4594 9.00742 19.5818L12.4363 21.5399C12.5452 21.608 12.6812 21.608 12.7901 21.5399C12.899 21.4855 12.967 21.3631 12.967 21.2407L12.9534 12.3203Z" fill="#333333"/>
<path d="M40.6839 0.0408565C40.5751 -0.0136188 40.439 -0.0136188 40.3437 0.0408565C40.2349 0.108863 40.1668 0.217578 40.1668 0.339942V9.17896C40.1668 9.26049 40.1261 9.34203 40.0444 9.3965C39.9628 9.43721 39.8811 9.43721 39.7995 9.3965L38.3572 8.56702C38.2515 8.50685 38.1319 8.47521 38.0102 8.47521C37.8885 8.47521 37.7689 8.50685 37.6632 8.56702L31.8939 11.8986C31.6763 12.021 31.5402 12.2522 31.5402 12.4969V19.1464C31.5402 19.3911 31.6763 19.6225 31.8939 19.7448L37.6632 23.0764C37.7689 23.1366 37.8885 23.1682 38.0102 23.1682C38.1319 23.1682 38.2515 23.1366 38.3572 23.0764L44.1264 19.7448C44.3441 19.6225 44.4802 19.3913 44.4802 19.1464V2.57014C44.4802 2.31176 44.3441 2.08068 44.1264 1.9582L40.684 0.0408565H40.6839ZM40.1533 16.9572C40.1533 17.0252 40.1261 17.0795 40.0716 17.1067L38.0987 18.2489C38.0711 18.2624 38.0409 18.2693 38.0102 18.2693C37.9795 18.2693 37.9493 18.2624 37.9217 18.2489L35.9488 17.1067C35.8943 17.0795 35.8671 17.0115 35.8671 16.9572V14.6726C35.8671 14.6046 35.8943 14.5503 35.9488 14.5231L37.9217 13.3807C37.9493 13.3673 37.9795 13.3603 38.0102 13.3603C38.0409 13.3603 38.0711 13.3673 38.0987 13.3807L40.0716 14.5231C40.1261 14.5501 40.1533 14.6183 40.1533 14.6726V16.9572Z" fill="#333333"/>
<path d="M59.8832 14.6182C60.101 14.4958 60.2234 14.2646 60.2234 14.0198V12.4016C60.2234 12.1569 60.0874 11.9257 59.8832 11.8033L54.1548 8.48539C54.0491 8.42524 53.9295 8.39362 53.8079 8.39362C53.6862 8.39362 53.5666 8.42524 53.4609 8.48539L47.6917 11.8169C47.4739 11.9392 47.3379 12.1704 47.3379 12.4153V19.0648C47.3379 19.3095 47.4739 19.5407 47.6917 19.6631L53.4201 22.9267C53.6379 23.049 53.8963 23.049 54.1004 22.9267L57.57 20.9959C57.6789 20.9414 57.747 20.8191 57.747 20.6967C57.747 20.5743 57.6789 20.452 57.57 20.3975L51.7736 17.0659C51.6648 16.998 51.5968 16.8892 51.5968 16.7668V14.6863C51.5968 14.5639 51.6648 14.4416 51.7736 14.3871L53.5834 13.3536C53.6363 13.3203 53.6976 13.3026 53.7602 13.3026C53.8228 13.3026 53.8842 13.3203 53.9371 13.3536L55.7468 14.3871C55.8557 14.4551 55.9237 14.5638 55.9237 14.6863V16.3181C55.9237 16.4404 55.9918 16.5628 56.1005 16.6172C56.2094 16.6852 56.3454 16.6852 56.4543 16.6172L59.8832 14.6182Z" fill="#333333"/>
<path d="M53.7193 14.3056C53.7395 14.2923 53.7631 14.2852 53.7873 14.2852C53.8115 14.2852 53.8351 14.2923 53.8553 14.3056L54.9575 14.9447C54.9983 14.9718 55.0255 15.0126 55.0255 15.0671V16.3453C55.0255 16.3996 54.9983 16.4405 54.9575 16.4676L53.8553 17.1068C53.8351 17.12 53.8115 17.1271 53.7873 17.1271C53.7631 17.1271 53.7395 17.12 53.7193 17.1068L52.6171 16.4676C52.5763 16.4405 52.5491 16.3996 52.5491 16.3453V15.0671C52.5491 15.0126 52.5763 14.9718 52.6171 14.9447L53.7193 14.3056Z" fill="#539E43"/>
<mask id="mask0" mask-type="alpha" maskUnits="userSpaceOnUse" x="15" y="8" width="14" height="16">
<path d="M22.6007 8.51267C22.4949 8.45253 22.3754 8.4209 22.2537 8.4209C22.1321 8.4209 22.0125 8.45253 21.9068 8.51267L16.1784 11.8168C15.9606 11.9392 15.8381 12.1704 15.8381 12.4151V19.0376C15.8381 19.2823 15.9742 19.5135 16.1784 19.6359L21.9068 22.9403C22.0125 23.0004 22.1321 23.0321 22.2537 23.0321C22.3754 23.0321 22.4949 23.0004 22.6007 22.9403L28.3292 19.6359C28.5469 19.5135 28.6694 19.2823 28.6694 19.0376V12.4153C28.6694 12.1705 28.5332 11.9393 28.3292 11.817L22.6007 8.51267Z" fill="white"/>
</mask>
<g mask="url(#mask0)">
<path d="M22.6007 8.51267C22.4949 8.45253 22.3754 8.4209 22.2537 8.4209C22.1321 8.4209 22.0125 8.45253 21.9068 8.51267L16.1784 11.8168C15.9606 11.9392 15.8381 12.1704 15.8381 12.4151V19.0376C15.8381 19.2823 15.9742 19.5135 16.1784 19.6359L21.9068 22.9403C22.0125 23.0004 22.1321 23.0321 22.2537 23.0321C22.3754 23.0321 22.4949 23.0004 22.6007 22.9403L28.3292 19.6359C28.5469 19.5135 28.6694 19.2823 28.6694 19.0376V12.4153C28.6694 12.1705 28.5332 11.9393 28.3292 11.817L22.6007 8.51267Z" fill="url(#paint0_linear)"/>
<path d="M28.3427 11.8163L22.5871 8.51204C22.5306 8.4835 22.4713 8.46071 22.4102 8.44403L15.9606 19.486C16.014 19.5511 16.0785 19.6064 16.1512 19.6491L21.9068 22.9536C22.0701 23.0487 22.2605 23.0759 22.4374 23.0214L28.4925 11.9525C28.4516 11.8981 28.3971 11.8572 28.3427 11.8164V11.8163Z" fill="url(#paint1_linear)"/>
<path fill-rule="evenodd" clip-rule="evenodd" d="M28.3563 19.636C28.5196 19.5408 28.6421 19.3776 28.6966 19.2009L22.3828 8.43102C22.2195 8.40384 22.0426 8.41737 21.8931 8.51255L16.1782 11.8034L22.342 23.0356C22.4316 23.0209 22.5187 22.9935 22.6005 22.9541L28.3562 19.6361L28.3563 19.636Z" fill="url(#paint2_linear)"/>
<path fill-rule="evenodd" clip-rule="evenodd" d="M28.3563 19.6359L22.6142 22.9403C22.5332 22.9816 22.4458 23.0092 22.3557 23.0218L22.4646 23.2259L28.8325 19.5408V19.4592L28.6692 19.1871C28.642 19.3775 28.5196 19.5407 28.3563 19.6359Z" fill="url(#paint3_linear)"/>
<path fill-rule="evenodd" clip-rule="evenodd" d="M28.3563 19.6359L22.6142 22.9403C22.5332 22.9816 22.4458 23.0092 22.3557 23.0218L22.4646 23.2259L28.8325 19.5408V19.4592L28.6692 19.1871C28.642 19.3775 28.5196 19.5407 28.3563 19.6359Z" fill="url(#paint4_linear)"/>
</g>
<defs>
<linearGradient id="paint0_linear" x1="24.5875" y1="10.976" x2="18.3142" y2="20.8393" gradientUnits="userSpaceOnUse">
<stop stop-color="#41873F"/>
<stop offset="0.3288" stop-color="#418B3D"/>
<stop offset="0.6352" stop-color="#419637"/>
<stop offset="0.9319" stop-color="#3FA92D"/>
<stop offset="1" stop-color="#3FAE2A"/>
</linearGradient>
<linearGradient id="paint1_linear" x1="21.384" y1="16.5016" x2="37.1047" y2="7.95518" gradientUnits="userSpaceOnUse">
<stop offset="0.1376" stop-color="#41873F"/>
<stop offset="0.4032" stop-color="#54A044"/>
<stop offset="0.7136" stop-color="#66B848"/>
<stop offset="0.9081" stop-color="#6CC04A"/>
</linearGradient>
<linearGradient id="paint2_linear" x1="15.6288" y1="15.7267" x2="28.8842" y2="15.7267" gradientUnits="userSpaceOnUse">
<stop offset="0.09192" stop-color="#6CC04A"/>
<stop offset="0.2864" stop-color="#66B848"/>
<stop offset="0.5968" stop-color="#54A044"/>
<stop offset="0.8624" stop-color="#41873F"/>
</linearGradient>
<linearGradient id="paint3_linear" x1="15.6288" y1="21.2176" x2="28.8841" y2="21.2176" gradientUnits="userSpaceOnUse">
<stop offset="0.09192" stop-color="#6CC04A"/>
<stop offset="0.2864" stop-color="#66B848"/>
<stop offset="0.5968" stop-color="#54A044"/>
<stop offset="0.8624" stop-color="#41873F"/>
</linearGradient>
<linearGradient id="paint4_linear" x1="30.8153" y1="10.6627" x2="27.4612" y2="28.2489" gradientUnits="userSpaceOnUse">
<stop stop-color="#41873F"/>
<stop offset="0.3288" stop-color="#418B3D"/>
<stop offset="0.6352" stop-color="#419637"/>
<stop offset="0.9319" stop-color="#3FA92D"/>
<stop offset="1" stop-color="#3FAE2A"/>
</linearGradient>
</defs>
</svg>
