<svg width="34" height="48" viewBox="0 0 34 48" fill="none" xmlns="http://www.w3.org/2000/svg">
<g clip-path="url(#clip0)">
<path d="M33.3802 9.4093L30.3445 44.0278L16.6988 47.8787L3.09079 44.0331L0.0582275 9.4093H33.3802Z" fill="#E44D26"/>
<path d="M16.7191 44.9353L27.7455 41.8235L30.3396 12.2404H16.7191V44.9353Z" fill="#F16529"/>
<path d="M10.8179 20.7333H16.7192V16.4868H6.25891L6.3587 17.6261L7.38405 29.3282H16.7192V25.0817H11.1991L10.8179 20.7333Z" fill="#EBEBEB"/>
<path d="M11.7579 31.4515H7.57031L8.1547 38.1191L16.6999 40.5338L16.7191 40.5284V36.1103L16.7008 36.1152L12.055 34.8383L11.7579 31.4515Z" fill="#EBEBEB"/>
<path d="M3.15833 0H5.27826V2.13208H7.21754V0H9.3376V6.45646H7.21767V4.29447H5.27839V6.45646H3.15846V0H3.15833Z" fill="black"/>
<path d="M12.1253 2.14112H10.2593V0H16.1128V2.14112H14.2456V6.45646H12.1257V2.14112H12.1255H12.1253Z" fill="black"/>
<path d="M17.0416 0H19.2521L20.6118 2.26863L21.9702 0H24.1816V6.45646H22.0703V3.25629L20.6118 5.55191H20.5752L19.1158 3.25629V6.45646H17.0416V0Z" fill="black"/>
<path d="M25.2367 0H27.3573V4.32239H30.3385V6.45646H25.2366V0H25.2367Z" fill="black"/>
<path d="M16.7047 29.3281H21.8415L21.3572 34.8355L16.7046 36.1138V40.5317L25.2565 38.119L25.3192 37.4016L26.2997 26.222L26.4014 25.0817H16.7047V29.3281Z" fill="white"/>
<path d="M16.7047 20.7229V20.7333H26.781L26.8646 19.7789L27.0548 17.6261L27.1544 16.4868H16.7047V20.723V20.7229Z" fill="white"/>
</g>
<defs>
<clipPath id="clip0">
<rect width="33.4382" height="48" fill="white"/>
</clipPath>
</defs>
</svg>
