<svg width="37" height="49" viewBox="0 0 37 49" fill="none" xmlns="http://www.w3.org/2000/svg">
<g clip-path="url(#clip0)">
<path d="M18.253 48.0507L3.3784 44.1913L0.0635986 9.44312H36.4869L33.1686 44.1859L18.253 48.0507Z" fill="#264DE4"/>
<path d="M30.3278 41.9735L33.1633 12.2842H18.2751V45.0965L30.3278 41.9735Z" fill="#2965F1"/>
<path d="M7.6626 25.1718L8.07122 29.4335H18.2752V25.1718H7.6626Z" fill="#EBEBEB"/>
<path d="M6.84143 16.5461L7.25591 20.8079H18.2753V16.5461H6.84143Z" fill="#EBEBEB"/>
<path d="M18.2751 36.24L18.2551 36.2449L13.1769 34.9633L12.8523 31.5645H8.2749L8.91368 38.256L18.2542 40.6793L18.2751 40.674V36.24Z" fill="#EBEBEB"/>
<path d="M8.6355 0H14.158V2.15855H10.945V4.3171H14.1583V6.47551H8.6355V0Z" fill="black"/>
<path d="M15.2627 0H20.7854V1.87699H17.5722V2.25236H20.7854V6.56946H15.2629V4.59839H18.476V4.22302H15.2626V0H15.2627Z" fill="black"/>
<path d="M21.8901 0H27.4128V1.87699H24.1997V2.25236H27.4128V6.56946H21.8901V4.59839H25.1033V4.22302H21.8903V0H21.8901Z" fill="black"/>
<path d="M28.8586 25.1719L29.6817 16.5461H18.2594V20.8079H24.6846L24.2697 25.1719H18.2594V29.4337H23.8743L23.3449 34.9608L18.2593 36.2437V40.6774L27.6072 38.2561L27.6757 37.5361L28.7474 26.3163L28.8586 25.1719Z" fill="white"/>
</g>
<defs>
<clipPath id="clip0">
<rect width="36.5504" height="48.1723" fill="white"/>
</clipPath>
</defs>
</svg>
