<svg width="33" height="45" viewBox="0 0 33 45" fill="none" xmlns="http://www.w3.org/2000/svg">
<g clip-path="url(#clip0)">
<path d="M10.4618 34.787C10.4618 34.787 8.78925 35.7852 11.6521 36.1229C15.1205 36.529 16.893 36.4708 20.7152 35.7283C20.7152 35.7283 21.7201 36.375 23.1234 36.9352C14.5553 40.7038 3.73187 36.7168 10.4618 34.787Z" fill="#5382A1"/>
<path d="M9.41476 29.8689C9.41476 29.8689 7.53883 31.2941 10.4039 31.5981C14.1088 31.9904 17.0347 32.0225 22.0976 31.022C22.0976 31.022 22.7979 31.7506 23.899 32.1491C13.5396 35.258 2.00103 32.3942 9.41476 29.8689Z" fill="#5382A1"/>
<path d="M18.2412 21.5265C20.3525 24.021 17.6866 26.2658 17.6866 26.2658C17.6866 26.2658 23.0472 23.4257 20.5853 19.8692C18.286 16.5527 16.5226 14.9046 26.0685 9.2229C26.0685 9.2229 11.0846 13.0635 18.2412 21.5264" fill="#E76F00"/>
<path d="M29.5733 38.4245C29.5733 38.4245 30.8111 39.4711 28.2102 40.2808C23.2645 41.8185 7.6258 42.2828 3.28138 40.3421C1.71973 39.6449 4.64837 38.6773 5.56954 38.4742C6.53025 38.2604 7.07936 38.3003 7.07936 38.3003C5.34258 37.0446 -4.14641 40.7658 2.25946 41.8313C19.729 44.7389 34.1047 40.5222 29.5733 38.4245Z" fill="#5382A1"/>
<path d="M11.2659 24.7733C11.2659 24.7733 3.3112 26.7125 8.44906 27.4165C10.6184 27.7146 14.9429 27.6472 18.9711 27.3007C22.2632 27.0159 25.5689 26.4098 25.5689 26.4098C25.5689 26.4098 24.408 26.92 23.5682 27.5086C15.4902 29.689 -0.115088 28.6747 4.37748 26.4443C8.17685 24.5595 11.266 24.7733 11.266 24.7733" fill="#5382A1"/>
<path d="M25.5361 32.9595C33.7479 28.5802 29.9511 24.3718 27.301 24.9389C26.6514 25.0775 26.3618 25.1977 26.3618 25.1977C26.3618 25.1977 26.603 24.8101 27.0635 24.6423C32.3062 22.7507 36.3382 30.2214 25.3711 33.1802C25.3711 33.1804 25.4982 33.0638 25.5361 32.9595Z" fill="#5382A1"/>
<path d="M20.5853 0.0482258C20.5853 0.0482258 25.1331 4.7173 16.2719 11.8966C9.16629 17.6558 14.6516 20.9395 16.269 24.6913C12.1213 20.8507 9.07733 17.4697 11.1195 14.3231C14.1167 9.70385 22.4202 7.46438 20.5853 0.0480957" fill="#E76F00"/>
<path d="M12.0729 44.8264C19.9551 45.3443 32.0591 44.5391 32.3458 40.7114C32.3458 40.7114 31.7948 42.1626 25.8316 43.3149C19.1039 44.6141 10.8064 44.4625 5.88501 43.6297C5.88514 43.6297 6.89248 44.4855 12.073 44.8264" fill="#5382A1"/>
</g>
<defs>
<clipPath id="clip0">
<rect width="32.4419" height="45" fill="white"/>
</clipPath>
</defs>
</svg>
