<svg width="40" height="45" viewBox="0 0 40 45" fill="none" xmlns="http://www.w3.org/2000/svg">
<g clip-path="url(#clip0)">
<path d="M39.8848 13.0799C39.8845 12.3342 39.7233 11.6753 39.3973 11.1098C39.077 10.5537 38.5975 10.0876 37.9542 9.7191C32.6441 6.69023 27.3289 3.67062 22.0206 0.638657C20.5895 -0.178655 19.202 -0.148859 17.7815 0.680187C15.6679 1.91326 5.08609 7.91064 1.93284 9.71741C0.634239 10.4611 0.00234094 11.5992 0.00202882 13.0785C0 19.1698 0.00202882 25.2609 0 31.3523C0.000312126 32.0816 0.154658 32.7277 0.466316 33.2847C0.786713 33.8576 1.273 34.3365 1.93112 34.7134C5.08453 36.5201 15.6678 42.5171 17.7809 43.7504C19.202 44.58 20.5895 44.6096 22.0211 43.792C27.3296 40.7599 32.6451 37.7404 37.9559 34.7115C38.614 34.3348 39.1003 33.8556 39.4207 33.2832C39.7319 32.7261 39.8865 32.08 39.8869 31.3506C39.8869 31.3506 39.8869 19.1713 39.8848 13.0799Z" fill="#5C8DBC"/>
<path d="M20.0044 22.1555L0.466309 33.2842C0.786706 33.8571 1.273 34.336 1.93111 34.7129C5.08452 36.5196 15.6678 42.5166 17.7809 43.7499C19.202 44.5794 20.5895 44.6091 22.0211 43.7915C27.3296 40.7594 32.6451 37.7399 37.9559 34.711C38.614 34.3343 39.1003 33.8551 39.4207 33.2826L20.0044 22.1555Z" fill="#1A4674"/>
<path d="M14.2174 25.4519C15.3543 27.4154 17.4916 28.7397 19.9434 28.7397C22.4102 28.7397 24.5597 27.3986 25.6908 25.4141L20.0044 22.1555L14.2174 25.4519Z" fill="#1A4674"/>
<path d="M39.8848 13.0795C39.8845 12.3338 39.7232 11.6749 39.3972 11.1094L20.0044 22.1556L39.4206 33.2827C39.7318 32.7257 39.8865 32.0796 39.8868 31.3501C39.8868 31.3501 39.8868 19.1709 39.8848 13.0795Z" fill="#1B598E"/>
<path d="M38.8171 22.951H37.2999V24.4523H35.7823V22.951H34.2653V21.4503H35.7823V19.9493H37.2999V21.4503H38.8171V22.951Z" fill="white"/>
<path d="M33.2808 22.951H31.7637V24.4523H30.2465V22.951H28.7292V21.4503H30.2465V19.9493H31.7637V21.4503H33.2808V22.951Z" fill="white"/>
<path d="M25.6908 25.4143C24.5597 27.3987 22.4102 28.7399 19.9433 28.7399C17.4916 28.7399 15.3543 27.4155 14.2174 25.4521C13.6463 24.4669 13.3463 23.3507 13.3475 22.2149C13.3475 18.6115 16.3007 15.6902 19.9433 15.6902C22.3793 15.6902 24.5054 16.998 25.6479 18.9414L31.413 15.6573C29.1216 11.7443 24.8434 9.11169 19.9433 9.11169C12.6277 9.11169 6.69751 14.9783 6.69751 22.2149C6.69751 24.5891 7.33596 26.8155 8.45181 28.7358C10.7375 32.6696 15.0278 35.3183 19.9433 35.3183C24.8679 35.3183 29.1649 32.6589 31.4474 28.7136L25.6908 25.4143Z" fill="white"/>
</g>
<defs>
<clipPath id="clip0">
<rect width="39.9521" height="44.4628" fill="white"/>
</clipPath>
</defs>
</svg>
