<svg width="41" height="37" viewBox="0 0 41 37" fill="none" xmlns="http://www.w3.org/2000/svg">
<g clip-path="url(#clip0)">
<path d="M33.4361 11.7274C33.0033 11.5789 32.5669 11.4414 32.1271 11.3149C32.201 11.013 32.269 10.7149 32.3294 10.4219C33.3203 5.61168 32.6725 1.73643 30.4598 0.460515C28.3383 -0.762662 24.8688 0.512778 21.3648 3.5623C21.0194 3.86338 20.6818 4.17314 20.3521 4.49128C20.1314 4.27973 19.9068 4.07228 19.6784 3.86905C16.006 0.608408 12.325 -0.765839 10.1147 0.513731C7.99513 1.74072 7.3675 5.38372 8.25962 9.94252C8.34838 10.394 8.4486 10.8432 8.56017 11.2896C8.03913 11.4377 7.53636 11.5952 7.05519 11.763C2.74961 13.2642 0 15.6166 0 18.0568C0 20.577 2.95183 23.1049 7.43628 24.6376C7.79984 24.7614 8.16644 24.8761 8.53571 24.9816C8.41578 25.4624 8.30931 25.9464 8.21641 26.4332C7.36591 30.9129 8.03008 34.4698 10.144 35.689C12.3272 36.948 15.9917 35.654 19.5597 32.5349C19.849 32.2813 20.132 32.0206 20.4083 31.7529C20.7653 32.0974 21.1319 32.4318 21.5076 32.7559C24.9639 35.7299 28.3774 36.9309 30.4892 35.7083C32.6704 34.4456 33.3794 30.6245 32.459 25.9757C32.3865 25.6115 32.3052 25.2491 32.2151 24.8888C32.4725 24.8125 32.7251 24.7341 32.9713 24.6524C37.6334 23.1079 40.6667 20.6107 40.6667 18.0568C40.6667 15.6077 37.8283 13.2394 33.4361 11.7274ZM32.425 23.0035C32.2026 23.0771 31.9745 23.1481 31.7419 23.2172C31.2272 21.5878 30.5327 19.8553 29.6827 18.0652C30.4938 16.3178 31.1616 14.6074 31.6619 12.9887C32.0779 13.1091 32.4815 13.236 32.8707 13.37C36.634 14.6656 38.9294 16.5809 38.9294 18.0568C38.9294 19.6288 36.4504 21.6696 32.425 23.0035ZM30.7548 26.3131C31.1618 28.3686 31.2198 30.2272 30.9502 31.6803C30.7081 32.9859 30.2211 33.8563 29.6187 34.205C28.3372 34.9468 25.5965 33.9826 22.6407 31.439C22.2913 31.1377 21.9503 30.8267 21.6181 30.5065C22.7641 29.2533 23.9093 27.7965 25.027 26.1784C26.993 26.0039 28.8503 25.7186 30.5346 25.3293C30.6176 25.664 30.6913 25.9922 30.7548 26.3131ZM13.8642 34.0768C12.6121 34.5188 11.6148 34.5316 11.0119 34.184C9.72918 33.4442 9.19591 30.5882 9.9233 26.7572C10.0098 26.3045 10.1088 25.8543 10.2202 25.4071C11.8859 25.7757 13.7298 26.0406 15.7004 26.2004C16.8257 27.7837 18.0039 29.239 19.1913 30.5133C18.939 30.7575 18.6807 30.9954 18.4166 31.2269C16.8387 32.6061 15.2576 33.5846 13.8642 34.0768ZM7.99831 22.9938C6.01533 22.316 4.3777 21.4351 3.25524 20.4739C2.24652 19.6102 1.73739 18.7526 1.73739 18.0568C1.73739 16.576 3.94498 14.6872 7.62707 13.4035C8.07392 13.2478 8.54159 13.1009 9.02689 12.963C9.53586 14.6182 10.2034 16.3489 11.0089 18.099C10.1929 19.875 9.51584 21.6334 9.00195 23.3082C8.66488 23.2116 8.33023 23.1068 7.99831 22.9938ZM9.9646 9.60877C9.20036 5.70302 9.7079 2.75675 10.9852 2.01729C12.3457 1.22969 15.354 2.35263 18.5249 5.16816C18.7317 5.35217 18.9351 5.53991 19.1351 5.7313C17.9535 7.00006 16.7861 8.44452 15.6708 10.0185C13.7582 10.1957 11.9274 10.4804 10.2442 10.8618C10.1405 10.4466 10.0473 10.0288 9.9646 9.60892V9.60877ZM27.5064 13.9404C27.1088 13.2537 26.6965 12.5756 26.2697 11.9066C27.5672 12.0707 28.8104 12.2885 29.9778 12.5547C29.6274 13.6781 29.1906 14.8525 28.6764 16.0567C28.3005 15.3435 27.9104 14.638 27.5064 13.9404ZM20.3529 6.9729C21.1541 7.84104 21.9567 8.81021 22.746 9.86182C21.1448 9.7862 19.5408 9.78588 17.9396 9.86087C18.7297 8.81894 19.5391 7.85105 20.3529 6.9729ZM13.1534 13.9523C12.7545 14.6443 12.3717 15.3454 12.0054 16.0552C11.4996 14.8554 11.0667 13.6756 10.7133 12.5363C11.8736 12.2767 13.1109 12.0645 14.4001 11.9034C13.9686 12.5765 13.5529 13.2596 13.1534 13.9522V13.9523ZM14.4371 24.3338C13.1052 24.1851 11.8493 23.9838 10.6893 23.7312C11.0483 22.5716 11.4907 21.3667 12.0075 20.1411C12.3752 20.8514 12.7596 21.553 13.1603 22.2453C13.5723 22.957 13.999 23.654 14.4371 24.3338ZM20.4008 29.263C19.5773 28.3747 18.7561 27.3919 17.954 26.3348C18.7327 26.3653 19.5265 26.3809 20.3333 26.3809C21.1622 26.3809 21.9816 26.3623 22.7881 26.3264C21.9962 27.4025 21.1967 28.3868 20.4008 29.263ZM28.6927 20.0785C29.2363 21.3176 29.6945 22.5161 30.0582 23.6559C28.8792 23.925 27.6062 24.1417 26.2648 24.3026C26.6946 23.6212 27.1108 22.9313 27.5132 22.2334C27.9223 21.5239 28.3156 20.8055 28.6927 20.0785ZM26.0084 21.3654C25.3924 22.4355 24.7418 23.4853 24.0575 24.5131C22.8181 24.6009 21.5759 24.6445 20.3333 24.6438C19.0677 24.6438 17.8368 24.6044 16.6514 24.5276C15.9493 23.5021 15.2863 22.4505 14.6637 21.3749H14.6638C14.0442 20.3051 13.4654 19.212 12.9287 18.0983C13.464 16.9842 14.041 15.8907 14.6586 14.82L14.6584 14.8201C15.2757 13.7492 15.9335 12.702 16.6303 11.681C17.8396 11.5895 19.0798 11.5419 20.3332 11.5419H20.3333C21.5924 11.5419 22.8342 11.59 24.0432 11.6821C24.733 12.7016 25.3865 13.7452 26.0027 14.8108C26.6223 15.8791 27.207 16.9673 27.7558 18.0736C27.2126 19.1913 26.6298 20.2892 26.0084 21.3654ZM29.5921 1.9655C30.9538 2.75087 31.4835 5.91795 30.6279 10.0712C30.5732 10.3362 30.5119 10.6061 30.4452 10.8798C28.7578 10.4902 26.9258 10.2007 25.0076 10.0207C23.8902 8.42943 22.7323 6.98275 21.57 5.73034C21.8746 5.4367 22.1865 5.15068 22.5053 4.87253C25.5077 2.25986 28.3137 1.22826 29.5921 1.9655ZM20.3333 14.4254C22.3389 14.4254 23.9647 16.0513 23.9647 18.0568C23.9647 20.0623 22.3389 21.6882 20.3333 21.6882C18.3278 21.6882 16.7019 20.0623 16.7019 18.0568C16.7019 16.0513 18.3278 14.4254 20.3333 14.4254Z" fill="#00D8FF"/>
</g>
<defs>
<clipPath id="clip0">
<rect width="40.6667" height="36.2188" fill="white"/>
</clipPath>
</defs>
</svg>
