<svg width="22" height="23" viewBox="0 0 22 23" fill="none" xmlns="http://www.w3.org/2000/svg">
<path d="M5.86663 14.6515V7.14709H14.9111L15.8766 6.16931H4.88885V14.6515H5.86663Z" fill="white"/>
<path d="M3.66668 4.94708H18.3333V14.7249H19.5556V4.64152C19.5556 4.39841 19.459 4.16525 19.2871 3.99334C19.1152 3.82143 18.882 3.72485 18.6389 3.72485H3.36112C3.11801 3.72485 2.88485 3.82143 2.71294 3.99334C2.54104 4.16525 2.44446 4.39841 2.44446 4.64152V14.7249H3.66668V4.94708Z" fill="white"/>
<path d="M0.611145 15.9471V18.0249C0.611145 18.4463 0.778545 18.8505 1.07652 19.1484C1.37449 19.4464 1.77863 19.6138 2.20003 19.6138H19.7634C20.1848 19.6138 20.5889 19.4464 20.8869 19.1484C21.1849 18.8505 21.3523 18.4463 21.3523 18.0249V15.9471H0.611145ZM20.1667 18.0249C20.1667 18.1222 20.1281 18.2154 20.0593 18.2842C19.9905 18.353 19.8973 18.3916 19.8 18.3916H2.17559C2.07834 18.3916 1.98508 18.353 1.91632 18.2842C1.84755 18.2154 1.80892 18.1222 1.80892 18.0249V16.8821H7.88948C7.96588 17.0624 8.09341 17.2163 8.25631 17.325C8.41921 17.4336 8.61036 17.4921 8.80614 17.4933H13.1634C13.3592 17.4921 13.5503 17.4336 13.7132 17.325C13.8761 17.2163 14.0036 17.0624 14.08 16.8821H20.1667V18.0249Z" fill="white"/>
</svg>
