<svg width="86" height="61" viewBox="0 0 86 61" fill="none" xmlns="http://www.w3.org/2000/svg">
<g filter="url(#filter0_d)">
<path d="M57.3195 5.37206C56.9393 5.37206 56.6858 5.42327 56.4298 5.48667V5.52569H56.4688C56.6468 5.8549 56.9393 6.11095 57.166 6.41577C57.3439 6.75961 57.495 7.11321 57.6608 7.45705L57.712 7.40584C58.0167 7.18881 58.1703 6.8474 58.1703 6.32555C58.0435 6.17192 58.0167 6.00853 57.9046 5.86709C57.7778 5.65006 57.4975 5.53789 57.3195 5.37206ZM22.7498 48.274H19.7419C19.6508 43.4843 19.3588 38.7004 18.8668 33.9352H18.8424L14.2598 48.274H11.9611L7.41504 33.9352H7.37604C7.02276 38.7074 6.81141 43.4892 6.74227 48.274H4C4.14849 42.2609 4.59348 36.2587 5.33335 30.2895H9.06528L13.4066 43.4993H13.431L17.8113 30.2895H21.3653C22.1526 36.8444 22.6231 42.8384 22.762 48.274H22.7498ZM35.8006 35.0033C34.5818 41.6582 32.956 46.4987 30.9645 49.5079C29.3898 51.8319 27.6762 53 25.809 53C25.3142 53 24.7048 52.8464 23.9686 52.5415V50.9418C24.3367 50.993 24.756 51.0296 25.2264 51.0296C26.1015 51.0296 26.8011 50.776 27.3349 50.3054C27.9687 49.7201 28.288 49.0617 28.288 48.3374C28.288 47.8302 28.0467 46.8133 27.5397 45.2648L24.2514 35.0033H27.2106L29.5726 42.675C30.1064 44.4284 30.3356 45.6355 30.2332 46.3329C31.5397 42.8774 32.4416 39.0928 32.9511 35.0033H35.8006ZM75.8671 48.274H67.3112V30.2895H70.1924V46.0647H75.8671V48.274ZM65.0759 48.7081L61.7754 47.0816C62.0679 46.8401 62.3458 46.5743 62.6018 46.2695C64.0107 44.6308 64.7103 42.18 64.7103 38.9538C64.7103 32.9963 62.3751 30.0261 57.7022 30.0261C55.4158 30.0261 53.6266 30.7748 52.3444 32.2867C50.9477 33.9376 50.2359 36.3762 50.2359 39.5902C50.2359 42.7531 50.8575 45.0649 52.1031 46.5499C53.2464 47.8717 54.96 48.5447 57.2586 48.5447C58.1093 48.5447 58.8966 48.4423 59.6084 48.2277L63.9132 50.7419L65.093 48.7105L65.0759 48.7081ZM54.3749 44.6674C53.6388 43.4993 53.2829 41.6191 53.2829 39.0269C53.2829 34.4936 54.6553 32.233 57.4097 32.233C58.8455 32.233 59.9107 32.7793 60.5835 33.8596C61.3074 35.0398 61.6755 36.8956 61.6755 39.461C61.6755 44.0211 60.2909 46.3207 57.5487 46.3207C56.1007 46.3207 55.0477 45.7745 54.3628 44.6942L54.3749 44.6674ZM48.9903 43.2969C48.9903 44.821 48.4321 46.0793 47.3011 47.0425C46.1847 48.0204 44.6978 48.5154 42.8062 48.5154C41.0414 48.5154 39.3522 47.957 37.6897 46.8377L38.4649 45.2892C39.886 46.0013 41.1682 46.3573 42.3382 46.3573C43.418 46.3573 44.2688 46.1159 44.8782 45.6452C45.4875 45.1624 45.8556 44.4893 45.8556 43.6383C45.8556 42.5702 45.1073 41.6557 43.7471 40.8949C42.4893 40.1974 39.964 38.7611 39.964 38.7611C38.5916 37.7589 37.9189 36.6908 37.9189 34.9252C37.9189 33.4645 38.4259 32.2964 39.4424 31.4064C40.471 30.4919 41.7776 30.0481 43.4034 30.0481C45.021 30.034 46.6067 30.498 47.9617 31.382L47.2645 32.9305C46.1754 32.4506 45.0005 32.196 43.8105 32.1818C42.8842 32.1818 42.1724 32.4111 41.6776 32.8549C41.1828 33.2987 40.8781 33.8571 40.8781 34.557C40.8781 35.6251 41.641 36.5396 43.0353 37.3248C44.3175 38.0222 46.894 39.4976 46.894 39.4976C48.3029 40.4876 49.0025 41.5557 49.0025 43.2944L48.9903 43.2969ZM79.4747 24.2589C77.7342 24.2199 76.3887 24.3979 75.2601 24.8807C74.9432 25.0075 74.4216 25.0075 74.3704 25.4148C74.5483 25.5928 74.5727 25.8732 74.7263 26.1122C74.992 26.5438 75.438 27.1291 75.8573 27.4339C76.3156 27.7899 76.7714 28.146 77.2419 28.4508C78.0926 28.9727 79.0457 29.2775 79.8817 29.7969C80.3522 30.1017 80.8348 30.4943 81.3028 30.8138C81.5442 30.9796 81.6953 31.2722 82 31.3722V31.3088C81.8464 31.1186 81.8099 30.8382 81.6563 30.6114C81.4394 30.3943 81.2248 30.2041 81.0079 29.9895C80.3722 29.1452 79.61 28.4041 78.7483 27.7924C78.0511 27.3217 76.5276 26.6609 76.2473 25.861L76.2083 25.8098C76.6788 25.7708 77.237 25.5928 77.6928 25.466C78.4289 25.2758 79.1139 25.3123 79.8769 25.1221C80.2269 25.0313 80.574 24.9296 80.9177 24.8173V24.6271C80.5253 24.2345 80.2328 23.7004 79.8257 23.3322C78.7039 22.3503 77.5066 21.4582 76.2449 20.6644C75.5599 20.2206 74.697 19.9401 73.9731 19.5719C73.7196 19.4451 73.2759 19.3817 73.1345 19.1647C72.7421 18.6818 72.513 18.06 72.2326 17.4869C71.595 16.2472 71.0023 14.9848 70.4556 13.7023C70.0632 12.8512 69.8341 12.0123 69.3514 11.2247C67.1162 7.52777 64.6786 5.29403 60.9467 3.09687C60.1471 2.63841 59.1818 2.4482 58.1654 2.20678C57.6194 2.1824 57.0855 2.14338 56.5395 2.11899C56.1836 1.96536 55.8424 1.56056 55.5377 1.35572C54.2945 0.568056 51.094 -1.12188 50.1921 1.1143C49.607 2.53599 51.055 3.92111 51.5644 4.63317C51.9325 5.1404 52.4029 5.70127 52.6686 6.25971C52.8222 6.64012 52.8588 7.03517 53.0123 7.42779C53.356 8.38127 53.6851 9.44693 54.1434 10.337C54.3847 10.7955 54.6382 11.2759 54.9429 11.6831C55.1208 11.9245 55.4255 12.027 55.4889 12.4196C55.1842 12.8634 55.1598 13.512 54.9941 14.0461C54.2068 16.5091 54.5115 19.5451 55.6157 21.3618C55.9716 21.9081 56.7955 23.103 57.9021 22.6445C58.8796 22.2519 58.6651 21.018 58.943 19.9255C59.0063 19.6597 58.9673 19.4939 59.0965 19.3159V19.3671C59.4134 19.9767 59.7181 20.562 59.9984 21.1716C60.659 22.2397 61.8388 23.3444 62.8163 24.0809C63.3379 24.4735 63.7425 25.149 64.3909 25.3879V25.3245H64.3398C64.2008 25.1343 64.0229 25.0441 63.8449 24.8929C63.4333 24.485 63.0512 24.0482 62.7017 23.5858C61.7998 22.3665 60.9881 21.0204 60.2763 19.6353C59.9334 18.951 59.6203 18.252 59.3379 17.5406C59.2111 17.287 59.2111 16.8919 58.9942 16.7651C58.6651 17.2358 58.1824 17.6406 57.9533 18.238C57.534 19.1647 57.495 20.3206 57.3317 21.5155C57.2562 21.5399 57.2927 21.5155 57.2562 21.5667C56.559 21.3887 56.3177 20.6766 56.0617 20.067C55.4012 18.5185 55.2988 16.0409 55.8594 14.2631C56.013 13.8047 56.659 12.3708 56.4054 11.9392C56.2665 11.5197 55.8351 11.2783 55.6059 10.9491C55.3134 10.5419 55.0209 10.0224 54.8186 9.56398C54.2969 8.34469 54.0434 6.9986 53.473 5.77931C53.2195 5.22087 52.7613 4.63561 52.3932 4.11619C51.9739 3.53093 51.5181 3.11394 51.1988 2.42626C51.0842 2.18484 50.9331 1.79222 51.111 1.53617C51.15 1.35816 51.2378 1.29475 51.4157 1.24354C51.696 1.00212 52.5078 1.30695 52.7881 1.44595C53.5876 1.76296 54.2604 2.06778 54.9332 2.52624C55.2379 2.74327 55.5669 3.14808 55.9618 3.26269H56.4201C57.1172 3.41632 57.8924 3.30171 58.5408 3.50411C59.6962 3.87233 60.737 4.40638 61.6755 4.9892C64.5454 6.83228 66.8793 9.39929 68.4422 12.4318C68.7079 12.9268 68.8225 13.3852 69.0638 13.9047C69.5074 14.985 70.0803 16.0628 70.5361 17.0919C70.9919 18.121 71.4258 19.1622 72.0839 20.0133C72.413 20.4718 73.7098 20.7107 74.3046 20.94C74.736 21.1424 75.4088 21.3204 75.7891 21.5496C76.5374 22.0081 77.2735 22.5275 77.9731 23.0347C78.329 23.2761 79.4089 23.8224 79.4722 24.254L79.4747 24.2589Z" fill="black"/>
</g>
<defs>
<filter id="filter0_d" x="0" y="0" width="86" height="61" filterUnits="userSpaceOnUse" color-interpolation-filters="sRGB">
<feFlood flood-opacity="0" result="BackgroundImageFix"/>
<feColorMatrix in="SourceAlpha" type="matrix" values="0 0 0 0 0 0 0 0 0 0 0 0 0 0 0 0 0 0 127 0"/>
<feOffset dy="4"/>
<feGaussianBlur stdDeviation="2"/>
<feColorMatrix type="matrix" values="0 0 0 0 0 0 0 0 0 0 0 0 0 0 0 0 0 0 0.25 0"/>
<feBlend mode="normal" in2="BackgroundImageFix" result="effect1_dropShadow"/>
<feBlend mode="normal" in="SourceGraphic" in2="effect1_dropShadow" result="shape"/>
</filter>
</defs>
</svg>
