<svg width="34" height="34" viewBox="0 0 34 34" fill="none" xmlns="http://www.w3.org/2000/svg">
<path d="M26.9902 9.76696L19.6388 2.41553C19.4288 2.20548 19.2187 2.10046 18.9037 2.10046H8.40162C7.24639 2.10046 6.30121 3.04565 6.30121 4.20087V29.4058C6.30121 30.561 7.24639 31.5062 8.40162 31.5062H25.2049C26.3601 31.5062 27.3053 30.561 27.3053 29.4058V10.5021C27.3053 10.187 27.2003 9.977 26.9902 9.76696ZM18.9037 4.62096L24.7848 10.5021H18.9037V4.62096ZM25.2049 29.4058H8.40162V4.20087H16.8033V10.5021C16.8033 11.6573 17.7484 12.6025 18.9037 12.6025H25.2049V29.4058Z" fill="black"/>
<path d="M10.5021 23.1045H23.1045V25.2049H10.5021V23.1045Z" fill="black"/>
<path d="M10.5021 16.8032H23.1045V18.9036H10.5021V16.8032Z" fill="black"/>
</svg>
